<?xml version="1.0" encoding="utf-8"?>
<!-- Generator: Adobe Illustrator 16.0.0, SVG Export Plug-In . SVG Version: 6.00 Build 0)  -->
<!DOCTYPE svg PUBLIC "-//W3C//DTD SVG 1.1//EN" "http://www.w3.org/Graphics/SVG/1.1/DTD/svg11.dtd">
<svg version="1.1" id="Layer_1" xmlns="http://www.w3.org/2000/svg" xmlns:xlink="http://www.w3.org/1999/xlink" x="0px" y="0px"
	 width="464px" height="715.5px" viewBox="0 0 464 715.5" enable-background="new 0 0 464 715.5" xml:space="preserve">
<linearGradient id="SVGID_1_" gradientUnits="userSpaceOnUse" x1="204.4814" y1="337.2212" x2="655.3154" y2="337.2212" gradientTransform="matrix(1 0 0 -1 -196.9805 477.6201)">
	<stop  offset="0" style="stop-color:#20D6DE"/>
	<stop  offset="1" style="stop-color:#C24AD2"/>
</linearGradient>
<path fill="#FFFFFF" stroke="url(#SVGID_1_)" stroke-width="2" stroke-miterlimit="10" d="M457.334,240.237
	c0,3.345-2.245,6.058-5.015,6.058H13.516c-2.77,0-5.015-2.712-5.015-6.058V40.56c0-3.345,2.246-6.057,5.015-6.057H452.32
	c2.77,0,5.015,2.713,5.015,6.057L457.334,240.237L457.334,240.237z"/>
<linearGradient id="SVGID_2_" gradientUnits="userSpaceOnUse" x1="204.4814" y1="109.8047" x2="655.3154" y2="109.8047" gradientTransform="matrix(1 0 0 -1 -196.9805 477.6201)">
	<stop  offset="0" style="stop-color:#20D6DE"/>
	<stop  offset="1" style="stop-color:#C24AD2"/>
</linearGradient>
<path fill="#F9F9F9" stroke="url(#SVGID_2_)" stroke-width="2" stroke-miterlimit="10" d="M457.334,467.653
	c0,3.345-2.245,6.059-5.015,6.059H13.516c-2.77,0-5.015-2.714-5.015-6.059V267.976c0-3.345,2.246-6.057,5.015-6.057H452.32
	c2.77,0,5.015,2.713,5.015,6.057L457.334,467.653L457.334,467.653z"/>
<linearGradient id="SVGID_3_" gradientUnits="userSpaceOnUse" x1="204.4814" y1="-118.7954" x2="655.3154" y2="-118.7954" gradientTransform="matrix(1 0 0 -1 -196.9805 477.6201)">
	<stop  offset="0" style="stop-color:#20D6DE"/>
	<stop  offset="1" style="stop-color:#C24AD2"/>
</linearGradient>
<path fill="#F9F9F9" stroke="url(#SVGID_3_)" stroke-width="2" stroke-miterlimit="10" d="M457.334,696.253
	c0,3.349-2.245,6.061-5.015,6.061H13.516c-2.77,0-5.015-2.712-5.015-6.061V496.578c0-3.346,2.246-6.061,5.015-6.061H452.32
	c2.77,0,5.015,2.714,5.015,6.061L457.334,696.253L457.334,696.253z"/>
<g>
	<g>
		<g>
			<path fill="#231F20" d="M219.554,68.693c12-5.5,17,7,30,5l2-5c0,0-13-2.5-14-5c0,0,11.75-1.75,15-7l-4-7c0,0-6,8.25-17,7
				c0,0-18,0.75-22-22l-8-1c0,0,0.75,23.25,21,28v2l-6,1C216.554,64.693,216.054,68.693,219.554,68.693z"/>
		</g>
		<rect x="234.18" y="5.068" fill="#20D6DE" width="3.75" height="7.25"/>
		
			<rect x="242.922" y="6.576" transform="matrix(-0.9584 -0.2854 0.2854 -0.9584 476.5015 89.8479)" fill="#20D6DE" width="3.752" height="7.251"/>
		
			<rect x="249.939" y="10.826" transform="matrix(-0.8295 -0.5586 0.5586 -0.8295 452.6122 167.0927)" fill="#20D6DE" width="3.751" height="7.249"/>
		
			<rect x="256.521" y="19.187" transform="matrix(-0.2094 -0.9778 0.9778 -0.2094 290.1092 280.3791)" fill="#20D6DE" width="3.749" height="7.456"/>
		
			<rect x="224.936" y="5.556" transform="matrix(-0.9568 0.2908 -0.2908 -0.9568 446.4931 -47.9852)" fill="#20D6DE" width="3.751" height="7.25"/>
		
			<rect x="216.433" y="9.57" transform="matrix(-0.8793 0.4763 -0.4763 -0.8793 416.5466 -79.1837)" fill="#AB5EC9" width="3.749" height="7.25"/>
		
			<rect x="210.172" y="15.557" transform="matrix(-0.4259 0.9048 -0.9048 -0.4259 319.7107 -164.5031)" fill="#AB5EC9" width="3.75" height="7.25"/>
		
			<rect x="205.428" y="25.059" transform="matrix(-0.1693 0.9856 -0.9856 -0.1693 270.6722 -170.7683)" fill="#AB5EC9" width="3.749" height="7.25"/>
		<ellipse fill="#FFFFFF" cx="234.055" cy="34.318" rx="24.25" ry="22.625"/>
	</g>
	<g>
		<path fill="#20D6DE" d="M243.262,36.351l-1.699-0.506c0.017,0.271-0.045,0.542-0.211,0.758l-0.279,0.369l-3.407,4.49
			c-0.218,0.285-0.56,0.455-0.955,0.455c-0.002,0-0.002,0-0.004,0c-0.375-0.014-0.722-0.21-0.922-0.525l-0.496-0.765l-1.063,0.939
			h-2.53l-1.048-0.926l-0.487,0.752c-0.203,0.314-0.548,0.51-0.965,0.525c-0.357,0-0.7-0.17-0.916-0.456l-3.409-4.49l-0.28-0.369
			c-0.165-0.218-0.225-0.489-0.21-0.759l-1.697,0.506c-1.008,0.3-1.7,1.228-1.7,2.279v1.977c0,6.621,5.368,11.989,11.992,11.989
			c6.62,0,11.987-5.368,11.987-11.989V38.63C244.961,37.579,244.27,36.651,243.262,36.351z M232.996,51.848
			c-0.369,0-0.698-0.204-0.882-0.517c-0.022-0.038-0.052-0.071-0.069-0.113l-1.377-3.252l0.849-5.682h2.958l0.853,5.682
			l-1.382,3.252c-0.016,0.041-0.045,0.074-0.063,0.111C233.693,51.644,233.365,51.848,232.996,51.848z"/>
		<path fill="#20D6DE" d="M226.818,34.5l-1.59,0.945c-0.132,0.078-0.224,0.209-0.254,0.36c-0.029,0.151,0.007,0.307,0.1,0.429
			l3.689,4.86c0.102,0.135,0.262,0.214,0.429,0.214c0.007,0,0.014-0.001,0.021-0.001c0.175-0.006,0.336-0.098,0.432-0.245
			l1.958-3.025C229.83,37.614,228.174,36.382,226.818,34.5z"/>
		<path fill="#20D6DE" d="M239.123,34.502c-1.355,1.88-3.012,3.113-4.787,3.535l1.957,3.025c0.096,0.147,0.258,0.239,0.434,0.245
			c0.006,0,0.017,0.001,0.021,0.001c0.168,0,0.326-0.079,0.43-0.214l3.689-4.86c0.094-0.122,0.129-0.277,0.1-0.429
			c-0.027-0.15-0.123-0.282-0.254-0.36L239.123,34.502z"/>
		<path fill="#20D6DE" d="M226.496,31.543c1.255,2.695,3.567,5.453,6.475,5.453c2.908,0,5.217-2.755,6.475-5.447
			c0.996-0.195,1.939-1.122,2.384-2.388c0.594-1.705,0.104-3.382-1.104-3.885c0.268-1.945,0.35-5.651-4.232-6.972
			c0,0-0.852-1.347-2.82-1.63c-0.514-0.075-1.104-0.072-1.776,0.043c-0.998,0.171-2.173,0.589-3.549,1.415
			c-3.327,1.997-3.561,5.393-3.105,7.126c0.001,0.003,0.004,0.006,0.005,0.009c-0.605,0.247-1.062,0.81-1.26,1.559
			c-0.188,0.711-0.138,1.541,0.139,2.334C224.556,30.416,225.484,31.337,226.496,31.543z M225.162,27.139
			c0.059-0.227,0.213-0.627,0.568-0.75c0.038-0.013,0.315-0.089,0.422-0.112c2.715-0.614,9.135-1.781,9.924-5.047
			c0,0,0.734,3.085,3.535,4.848c0.322,0.202,0.563,0.299,0.602,0.312c0.543,0.188,0.863,1.209,0.459,2.371
			c-0.363,1.042-1.102,1.606-1.627,1.606l0,0c-0.25-0.004-0.473,0.14-0.572,0.366c-1.063,2.438-3.063,5.043-5.5,5.043
			s-4.438-2.605-5.5-5.043c-0.097-0.223-0.343-0.366-0.586-0.366c-0.51,0-1.248-0.563-1.611-1.606
			C225.078,28.202,225.037,27.61,225.162,27.139z"/>
	</g>
</g>
<g>
	<g>
		<g>
			<path fill="#231F20" d="M219.554,293.625c12-5.5,17,7,30,5l2-5c0,0-13-2.5-14-5c0,0,11.75-1.75,15-7l-4-7c0,0-6,8.25-17,7
				c0,0-18,0.75-22-22l-8-1c0,0,0.75,23.25,21,28v2l-6,1C216.554,289.625,216.054,293.625,219.554,293.625z"/>
		</g>
		<rect x="234.18" y="230" fill="#20D6DE" width="3.75" height="7.25"/>
		
			<rect x="242.917" y="231.505" transform="matrix(-0.9584 -0.2855 0.2855 -0.9584 412.2708 530.3587)" fill="#20D6DE" width="3.751" height="7.25"/>
		
			<rect x="249.932" y="235.754" transform="matrix(-0.8296 -0.5583 0.5583 -0.8296 327.0696 578.5616)" fill="#20D6DE" width="3.75" height="7.25"/>
		
			<rect x="256.539" y="244.118" transform="matrix(-0.2094 -0.9778 0.9778 -0.2094 70.165 552.4253)" fill="#20D6DE" width="3.75" height="7.457"/>
		
			<rect x="224.943" y="230.505" transform="matrix(-0.9568 0.2909 -0.2909 -0.9568 511.9317 392.1596)" fill="#20D6DE" width="3.75" height="7.25"/>
		
			<rect x="216.416" y="234.509" transform="matrix(-0.8794 0.476 -0.476 -0.8794 523.623 343.6364)" fill="#AB5EC9" width="3.749" height="7.25"/>
		
			<rect x="210.188" y="240.498" transform="matrix(-0.4259 0.9048 -0.9048 -0.4259 523.2538 156.2229)" fill="#AB5EC9" width="3.749" height="7.25"/>
		
			<rect x="205.438" y="249.995" transform="matrix(-0.1692 0.9856 -0.9856 -0.1692 492.349 92.2003)" fill="#AB5EC9" width="3.749" height="7.252"/>
		<ellipse fill="#FFFFFF" cx="234.055" cy="259.25" rx="24.25" ry="22.625"/>
	</g>
	<g>
		<g>
			<path fill="#20D6DE" d="M245.908,255.739c-0.018-0.021-0.032-0.041-0.055-0.063l-0.93-0.896c0.771-0.175,1.602-0.82,1.602-1.482
				c0-0.771-1.071-1.045-1.983-1.045c-0.956,0-1.065,0.655-1.078,1.117l-2.396-2.31c-0.487-0.481-1.409-0.861-2.104-0.861H234.3l0,0
				h-4.667c-0.689,0-1.612,0.379-2.1,0.861l-2.395,2.31c-0.013-0.462-0.124-1.117-1.077-1.117c-0.914,0-1.984,0.274-1.984,1.045
				c0,0.662,0.83,1.307,1.6,1.482l-0.929,0.896c-0.021,0.021-0.036,0.04-0.054,0.063c-0.994,0.849-1.643,2.424-1.643,3.566v3.396
				c0,0.824,0.325,1.572,0.85,2.13v1.316c0,0.771,0.645,1.397,1.438,1.397h1.738c0.793,0,1.438-0.627,1.438-1.397v-0.337h7.785
				h0.003h7.783v0.337c0,0.771,0.645,1.397,1.438,1.397h1.736c0.793,0,1.438-0.627,1.438-1.397v-1.316
				c0.524-0.558,0.85-1.306,0.85-2.13v-3.396C247.551,258.163,246.9,256.588,245.908,255.739z M228.415,252.089
				c0.337-0.281,0.926-0.494,1.22-0.494h4.667h0.001h4.668c0.293,0,0.883,0.212,1.219,0.494l3.144,3.044h-9.024h-0.002h-9.029
				L228.415,252.089z M222.132,258.792c0-0.836,0.654-1.515,1.462-1.515c0.808,0,3.446,1.549,3.446,2.385s-2.639,0.642-3.446,0.642
				C222.787,260.304,222.132,259.628,222.132,258.792z M226.517,264.322h-0.278h-0.278l-1.652,0.002
				c-0.459-0.143-0.782-0.31-1.011-0.488c-0.116-0.09-0.204-0.185-0.273-0.277c-0.069-0.096-0.12-0.188-0.153-0.281
				c-0.206-0.581,0.219-1.114,0.219-1.114h2.819l1.88,2.157L226.517,264.322L226.517,264.322z M238.355,264.322H234.3l0,0h-4.054
				c-0.845,0-1.532-0.688-1.532-1.53h5.586h0.001h5.586C239.889,263.637,239.202,264.322,238.355,264.322z M238.712,261.746h-4.409
				h-0.001h-4.409c-0.92,0-1.666-1.133-1.666-2.531h6.075h0.001h6.075C240.378,260.614,239.632,261.746,238.712,261.746z
				 M245.734,263.278c-0.032,0.093-0.084,0.186-0.153,0.28c-0.067,0.094-0.157,0.188-0.272,0.277
				c-0.229,0.18-0.554,0.348-1.012,0.488l-1.65-0.002h-0.277h-0.278h-1.271l1.881-2.158h2.82
				C245.516,262.164,245.939,262.696,245.734,263.278z M245.012,260.304c-0.808,0-3.445,0.193-3.445-0.642s2.641-2.385,3.445-2.385
				c0.809,0,1.461,0.679,1.461,1.515C246.473,259.627,245.818,260.304,245.012,260.304z"/>
		</g>
		<polygon fill="#20D6DE" points="227.679,258.5 227.054,261.125 222.179,261.375 222.679,264.375 224.054,264.875 228.429,265.25 
			233.18,265.5 237.555,264.625 241.305,265.125 245.43,264.625 246.305,262 246.055,260.875 241.18,261.25 240.68,260 
			240.68,258.625 		"/>
	</g>
</g>
<g>
	<g>
		<g>
			<path fill="#231F20" d="M219.554,522.801c12-5.5,17,7,30,5l2-5c0,0-13-2.5-14-5c0,0,11.75-1.75,15-7l-4-7c0,0-6,8.25-17,7
				c0,0-18,0.75-22-22l-8-1c0,0,0.75,23.25,21,28v2l-6,1C216.554,518.801,216.054,522.801,219.554,522.801z"/>
		</g>
		<rect x="234.18" y="459.176" fill="#20D6DE" width="3.75" height="7.25"/>
		
			<rect x="242.915" y="460.658" transform="matrix(-0.9584 -0.2853 0.2853 -0.9584 346.9515 979.1091)" fill="#20D6DE" width="3.752" height="7.251"/>
		
			<rect x="249.913" y="464.92" transform="matrix(-0.8296 -0.5584 0.5584 -0.8296 199.0565 997.8391)" fill="#20D6DE" width="3.752" height="7.25"/>
		
			<rect x="256.544" y="473.307" transform="matrix(-0.2095 -0.9778 0.9778 -0.2095 -153.9012 829.6482)" fill="#20D6DE" width="3.748" height="7.458"/>
		
			<rect x="224.973" y="459.663" transform="matrix(-0.9568 0.2908 -0.2908 -0.9568 578.6219 840.5855)" fill="#20D6DE" width="3.751" height="7.252"/>
		
			<rect x="216.421" y="463.665" transform="matrix(-0.8792 0.4765 -0.4765 -0.8792 632.8647 774.1209)" fill="#AB5EC9" width="3.749" height="7.25"/>
		
			<rect x="210.192" y="469.646" transform="matrix(-0.4257 0.9048 -0.9048 -0.4257 730.5909 482.874)" fill="#AB5EC9" width="3.752" height="7.25"/>
		
			<rect x="205.441" y="479.149" transform="matrix(-0.1692 0.9856 -0.9856 -0.1692 718.2093 360.1407)" fill="#AB5EC9" width="3.748" height="7.251"/>
		<ellipse fill="#FFFFFF" cx="234.055" cy="488.426" rx="24.25" ry="22.625"/>
	</g>
	<g>
		<g>
			<rect x="228.378" y="479.25" fill="#20D6DE" width="19" height="20.75"/>
			<rect x="229.355" y="480.125" fill="#FFFFFF" width="16.92" height="18.75"/>
		</g>
		<rect x="222.878" y="475.75" fill="#20D6DE" width="19" height="20.75"/>
		<rect x="223.855" y="476.625" fill="#FFFFFF" width="16.92" height="18.75"/>
		<rect x="225.378" y="478.5" fill="#20D6DE" width="12" height="1.5"/>
		<rect x="225.378" y="484" fill="#20D6DE" width="8" height="1.5"/>
		<rect x="232.378" y="486.5" fill="#FFFFFF" width="13.875" height="11.75"/>
		<rect x="225.378" y="489.5" fill="#20D6DE" width="5" height="1.5"/>
		<rect x="245.814" y="489.25" fill="#FFFFFF" width="1.688" height="2.25"/>
		<rect x="245.814" y="493.375" fill="#FFFFFF" width="1.688" height="2.25"/>
		<g>
			<g>
				<path fill="#20D6DE" d="M247.064,491.609l0.021,0.004H237.4l3.045-2.73c0.146-0.133,0.229-0.313,0.229-0.503
					c0-0.188-0.082-0.369-0.229-0.503l-0.475-0.424c-0.148-0.133-0.35-0.207-0.561-0.207c-0.213,0-0.411,0.073-0.563,0.206
					l-5.221,4.671c-0.148,0.134-0.23,0.312-0.23,0.501c0,0.19,0.082,0.369,0.23,0.502l5.221,4.671
					c0.148,0.133,0.348,0.207,0.563,0.207c0.211,0,0.408-0.074,0.561-0.207l0.475-0.424c0.146-0.133,0.229-0.313,0.229-0.5
					c0-0.189-0.082-0.358-0.229-0.492l-3.078-2.745h9.708c0.437,0,0.803-0.336,0.803-0.726v-0.604
					C247.878,491.919,247.501,491.609,247.064,491.609z"/>
			</g>
		</g>
	</g>
</g>
</svg>
