<?xml version="1.0" encoding="utf-8"?>
<!-- Generator: Adobe Illustrator 16.0.0, SVG Export Plug-In . SVG Version: 6.00 Build 0)  -->
<!DOCTYPE svg PUBLIC "-//W3C//DTD SVG 1.1//EN" "http://www.w3.org/Graphics/SVG/1.1/DTD/svg11.dtd">
<svg version="1.1" id="Layer_1" xmlns="http://www.w3.org/2000/svg" xmlns:xlink="http://www.w3.org/1999/xlink" x="0px" y="0px"
	 width="623.62px" height="311.81px" viewBox="0 0 623.62 311.81" enable-background="new 0 0 623.62 311.81" xml:space="preserve">
<rect y="331.81" fill="#231F20" width="623.62" height="311.81"/>
<linearGradient id="SVGID_1_" gradientUnits="userSpaceOnUse" x1="247.0815" y1="422.8096" x2="153.7485" y2="448.1436">
	<stop  offset="0" style="stop-color:#20D6DE"/>
	<stop  offset="1" style="stop-color:#C24AD2"/>
</linearGradient>
<path fill="url(#SVGID_1_)" d="M185.539,432.562c-1.644,0.894-3.223,1.895-4.72,3.026c2.56,3.364,5.142,6.715,7.725,10.064
	c1.383-1.23,2.868-2.272,4.428-3.161C190.468,439.199,187.996,435.89,185.539,432.562z"/>
<g>
	<path fill="#A7A9AC" d="M267.029,537.275l3.479,2.008c-0.781,3.067-2.36,5.447-4.736,7.136c-2.375,1.685-5.106,2.528-8.196,2.528
		c-4.046,0-7.295-1.356-9.741-4.068c-2.447-2.713-3.669-6.067-3.669-10.064c0-4.384,1.228-7.868,3.687-10.46
		c2.461-2.596,5.668-3.894,9.629-3.894c3.497,0,6.436,0.987,8.818,2.959v-2.52h3.458v8.87H266.3
		c-0.771-1.796-1.952-3.193-3.555-4.177c-1.601-0.987-3.285-1.478-5.053-1.478c-2.665,0-4.85,0.993-6.563,2.974
		c-1.709,1.989-2.562,4.495-2.562,7.526c0,3.108,0.912,5.65,2.744,7.622c1.833,1.972,4.006,2.955,6.517,2.955
		c2.062,0,3.939-0.683,5.63-2.053C265.148,541.775,266.338,539.817,267.029,537.275z"/>
	<path fill="#A7A9AC" d="M292.777,545.157v3.354h-6.377v-2.34c-1.77,1.77-3.741,2.659-5.919,2.659c-1.689,0-3.16-0.57-4.41-1.707
		c-1.249-1.136-1.871-2.596-1.871-4.369c0-1.788,0.66-3.27,1.987-4.446c1.325-1.177,2.923-1.77,4.792-1.77
		c1.742,0,3.426,0.543,5.057,1.63v-1.904c0-0.979-0.09-1.733-0.27-2.264c-0.179-0.534-0.599-1.006-1.262-1.433
		c-0.658-0.422-1.518-0.633-2.583-0.633c-1.833,0-3.157,0.754-3.977,2.264l-3.497-0.957c1.549-2.991,4.226-4.482,8.03-4.482
		c1.396,0,2.604,0.193,3.622,0.584c1.017,0.391,1.778,0.894,2.277,1.509c0.5,0.616,0.837,1.28,1.008,1.999
		c0.175,0.71,0.26,1.851,0.26,3.413v8.893H292.777z M286.036,541.366c-1.576-1.271-3.17-1.903-4.788-1.903
		c-1.01,0-1.857,0.301-2.535,0.907c-0.678,0.61-1.017,1.4-1.017,2.366c0,0.898,0.296,1.653,0.894,2.259
		c0.593,0.611,1.406,0.916,2.43,0.916c1.768,0,3.44-0.768,5.017-2.304V541.366z"/>
	<path fill="#A7A9AC" d="M297.89,545.157v-12.508h-3.748v-3.354h6.669v4.324c0.409-1.122,0.979-2.057,1.711-2.793
		c0.728-0.745,1.5-1.23,2.313-1.469c0.813-0.242,1.922-0.359,3.333-0.359h0.961v3.813h-0.73c-1.857,0-3.245,0.188-4.159,0.574
		c-0.918,0.382-1.597,1.078-2.037,2.093c-0.445,1.016-0.665,2.83-0.665,5.452v4.227h4.055v3.354h-11.452v-3.354H297.89z"/>
	<path fill="#A7A9AC" d="M323.617,545.054v-20.699h-3.379V520.9h20.733v8.317h-3.306v-4.863h-10.01v8.178h8.627v3.454h-8.627v9.067
		h3.42v3.458h-10.837v-3.458H323.617z"/>
	<path fill="#A7A9AC" d="M345.408,545.157v-12.508h-2.883v-3.354h6.535v15.862h2.883v3.354h-9.418v-3.354H345.408z M344.889,522.765
		c0-0.611,0.209-1.137,0.624-1.585c0.416-0.454,0.946-0.679,1.585-0.679c0.604,0,1.121,0.221,1.556,0.656s0.656,0.97,0.656,1.607
		c0,0.633-0.22,1.177-0.656,1.617c-0.436,0.444-0.952,0.664-1.556,0.664c-0.615,0-1.134-0.225-1.567-0.674
		C345.103,523.923,344.889,523.385,344.889,522.765z"/>
	<path fill="#A7A9AC" d="M360.705,529.295v2.321c2.34-1.747,4.482-2.618,6.416-2.618c1.206,0,2.203,0.297,2.986,0.885
		c0.788,0.589,1.305,1.307,1.547,2.16c0.247,0.854,0.364,2.103,0.364,3.746v9.368h3.135v3.354h-6.782v-12.565
		c0-1.455-0.211-2.407-0.635-2.848c-0.424-0.444-0.943-0.665-1.556-0.665c-1.612,0-3.44,0.809-5.475,2.443v10.28h3.207v3.354
		h-10.127v-3.354h3.27v-12.508h-3.27v-3.354H360.705z"/>
	<path fill="#A7A9AC" d="M395.672,545.157v3.354h-6.382v-2.34c-1.765,1.77-3.736,2.659-5.915,2.659c-1.688,0-3.162-0.57-4.41-1.707
		c-1.249-1.136-1.873-2.596-1.873-4.369c0-1.788,0.665-3.27,1.99-4.446s2.924-1.77,4.792-1.77c1.743,0,3.427,0.543,5.052,1.63
		v-1.904c0-0.979-0.09-1.733-0.265-2.264c-0.18-0.534-0.598-1.006-1.262-1.433c-0.66-0.422-1.522-0.633-2.583-0.633
		c-1.832,0-3.157,0.754-3.979,2.264l-3.494-0.957c1.545-2.991,4.226-4.482,8.035-4.482c1.392,0,2.596,0.193,3.615,0.584
		c1.024,0.391,1.783,0.894,2.282,1.509c0.499,0.616,0.831,1.28,1.006,1.999c0.171,0.71,0.256,1.851,0.256,3.413v8.893H395.672z
		 M388.926,541.366c-1.572-1.271-3.166-1.903-4.783-1.903c-1.011,0-1.855,0.301-2.538,0.907c-0.674,0.61-1.015,1.4-1.015,2.366
		c0,0.898,0.296,1.653,0.889,2.259c0.598,0.611,1.411,0.916,2.435,0.916c1.77,0,3.44-0.768,5.012-2.304V541.366z"/>
	<path fill="#A7A9AC" d="M404.151,529.295v2.321c2.34-1.747,4.482-2.618,6.417-2.618c1.199,0,2.196,0.297,2.982,0.885
		c0.791,0.589,1.303,1.307,1.55,2.16c0.242,0.854,0.364,2.103,0.364,3.746v9.368h3.13v3.354h-6.777v-12.565
		c0-1.455-0.215-2.407-0.638-2.848c-0.422-0.444-0.943-0.665-1.554-0.665c-1.617,0-3.445,0.809-5.475,2.443v10.28h3.207v3.354
		H397.23v-3.354h3.265v-12.508h-3.265v-3.354H404.151z"/>
	<path fill="#A7A9AC" d="M437.753,529.295v7.262h-3.265c-0.166-1.388-0.714-2.452-1.644-3.193c-0.93-0.736-2.007-1.109-3.238-1.109
		c-1.639,0-2.973,0.598-3.997,1.797s-1.536,2.767-1.536,4.711c0,1.814,0.485,3.413,1.464,4.797c0.97,1.383,2.38,2.074,4.222,2.074
		c2.564,0,4.424-1.257,5.573-3.772l3.014,1.469c-1.662,3.826-4.576,5.74-8.74,5.74c-2.946,0-5.263-1.042-6.952-3.117
		c-1.693-2.079-2.537-4.474-2.537-7.19c0-2.896,0.92-5.286,2.762-7.172c1.846-1.887,3.975-2.83,6.386-2.83
		c2.057,0,3.8,0.629,5.223,1.887v-1.352H437.753z"/>
	<path fill="#A7A9AC" d="M460.33,539.854h-15.638c0.229,1.773,0.907,3.211,2.039,4.312c1.127,1.096,2.564,1.647,4.321,1.647
		c2.546,0,4.567-1.06,6.049-3.18l3.229,1.474c-1.046,1.68-2.412,2.928-4.091,3.741c-1.68,0.813-3.436,1.222-5.264,1.222
		c-2.843,0-5.277-0.917-7.293-2.749c-2.017-1.837-3.022-4.307-3.022-7.415c0-2.95,0.979-5.385,2.941-7.289
		c1.972-1.904,4.227-2.856,6.777-2.856c2.497,0,4.765,0.93,6.795,2.789C459.198,533.408,460.254,536.18,460.33,539.854z
		 M456.566,537.118c-0.256-1.352-0.934-2.573-2.039-3.665c-1.101-1.091-2.452-1.639-4.051-1.639c-1.459,0-2.712,0.494-3.746,1.481
		c-1.042,0.983-1.675,2.26-1.909,3.822H456.566z"/>
</g>
<path fill="#FFFFFF" d="M216.159,515.615l-2.533-1.114c7.918-0.66,15.032-3.422,21.342-8.29c0.689-0.53,1.334-1.078,1.976-1.622
	c-2.376-1.98-4.168-4.491-5.362-7.293c-0.838-1.15-1.491-2.435-1.909-3.804c-0.072,0.08-0.137,0.17-0.211,0.251
	c-5.73,6.539-13.053,9.809-21.961,9.809c-8.994,0-16.253-3.197-21.78-9.593c-4.662-5.39-7.318-11.884-8.05-19.446
	c-4.693-1.626-9.517-2.74-14.38-3.692c0.067,5.322,0.99,10.676,2.818,16.056c1.897,5.587,5.248,10.806,10.053,15.651
	c4.805,4.847,10.673,8.363,17.603,10.55c-3.918,0.826-7.094,2.556-9.528,5.196l3.651,5.264c2.228-2.044,5.174-3.063,8.848-3.063
	c3.548,0,8.414,1.49,14.6,4.468c7.177,3.472,12.807,5.21,16.891,5.21c1.028,0,2.165-0.104,3.404-0.306l4.576-10.644
	c-1.854,0.373-3.361,0.557-4.516,0.557C228.061,519.76,222.882,518.377,216.159,515.615z"/>
<linearGradient id="SVGID_2_" gradientUnits="userSpaceOnUse" x1="246.5049" y1="420.6846" x2="153.1718" y2="446.0187">
	<stop  offset="0" style="stop-color:#20D6DE"/>
	<stop  offset="1" style="stop-color:#C24AD2"/>
</linearGradient>
<path fill="url(#SVGID_2_)" d="M199.163,427.167c-1.844,0.306-3.665,0.729-5.45,1.303c1.304,4.024,2.641,8.039,3.974,12.05
	c1.713-0.705,3.456-1.199,5.223-1.527C201.63,435.063,200.386,431.124,199.163,427.167z"/>
<linearGradient id="SVGID_3_" gradientUnits="userSpaceOnUse" x1="247.0337" y1="422.6338" x2="153.7011" y2="447.9677">
	<stop  offset="0" style="stop-color:#20D6DE"/>
	<stop  offset="1" style="stop-color:#C24AD2"/>
</linearGradient>
<path fill="url(#SVGID_3_)" d="M212.553,426.709c-1.853-0.251-3.716-0.377-5.596-0.346c0.081,4.227,0.188,8.457,0.296,12.683
	c1.841-0.175,3.656-0.139,5.438,0.059C212.616,434.973,212.571,430.841,212.553,426.709z"/>
<linearGradient id="SVGID_4_" gradientUnits="userSpaceOnUse" x1="248.5835" y1="428.3428" x2="155.2505" y2="453.6768">
	<stop  offset="0" style="stop-color:#20D6DE"/>
	<stop  offset="1" style="stop-color:#C24AD2"/>
</linearGradient>
<path fill="url(#SVGID_4_)" d="M174.257,441.781c-1.318,1.334-2.54,2.744-3.647,4.263c3.422,2.483,6.862,4.944,10.303,7.405
	c0.965-1.576,2.088-3,3.323-4.303C180.891,446.717,177.567,444.261,174.257,441.781z"/>
<linearGradient id="SVGID_5_" gradientUnits="userSpaceOnUse" x1="251.4316" y1="438.8359" x2="158.0986" y2="464.17">
	<stop  offset="0" style="stop-color:#20D6DE"/>
	<stop  offset="1" style="stop-color:#C24AD2"/>
</linearGradient>
<path fill="url(#SVGID_5_)" d="M165.428,456.566c-0.732,1.725-1.343,3.489-1.81,5.309c4.098,1.037,8.207,2.052,12.314,3.067
	c0.314-1.828,0.826-3.566,1.491-5.232C173.417,458.69,169.42,457.644,165.428,456.566z"/>
<linearGradient id="SVGID_6_" gradientUnits="userSpaceOnUse" x1="250.2095" y1="434.334" x2="156.8765" y2="459.6681">
	<stop  offset="0" style="stop-color:#20D6DE"/>
	<stop  offset="1" style="stop-color:#C24AD2"/>
</linearGradient>
<path fill="url(#SVGID_6_)" d="M233.497,432.731c1.646,0.895,3.222,1.896,4.72,3.027c-2.56,3.364-5.145,6.714-7.727,10.064
	c-1.383-1.23-2.865-2.272-4.424-3.161C228.568,439.37,231.042,436.06,233.497,432.731z"/>
<linearGradient id="SVGID_7_" gradientUnits="userSpaceOnUse" x1="248.2817" y1="427.2314" x2="154.9487" y2="452.5655">
	<stop  offset="0" style="stop-color:#20D6DE"/>
	<stop  offset="1" style="stop-color:#C24AD2"/>
</linearGradient>
<path fill="url(#SVGID_7_)" d="M221.414,427.706c1.828,0.387,3.629,0.89,5.385,1.55c-1.489,3.957-3.004,7.904-4.52,11.852
	c-1.68-0.785-3.397-1.355-5.147-1.765C218.586,435.476,220.012,431.596,221.414,427.706z"/>
<linearGradient id="SVGID_8_" gradientUnits="userSpaceOnUse" x1="253.2959" y1="445.7041" x2="159.9629" y2="471.0381">
	<stop  offset="0" style="stop-color:#20D6DE"/>
	<stop  offset="1" style="stop-color:#C24AD2"/>
</linearGradient>
<path fill="url(#SVGID_8_)" d="M244.619,443.129c1.316,1.329,2.537,2.739,3.645,4.258c-3.42,2.483-6.862,4.944-10.3,7.41
	c-0.968-1.581-2.088-3.005-3.326-4.308C237.983,448.06,241.307,445.604,244.619,443.129z"/>
<path fill="#E6E7E8" d="M282.378,501.558v7.213h-14.747v-4.738c-4.599,3.615-9.004,5.421-13.217,5.421
	c-2.672,0-4.882-0.606-6.629-1.814c-1.751-1.208-2.915-2.771-3.492-4.693s-0.867-5.012-0.867-9.283v-18.988h-6.91v-7.212h14.758
	v25.177c0,3.045,0.081,5.093,0.247,6.148c0.166,1.051,0.646,1.917,1.446,2.6c0.8,0.683,1.803,1.024,3.014,1.024
	c3.636,0,7.518-1.792,11.65-5.376v-22.361h-7.064v-7.212h14.913v34.096H282.378z"/>
<polygon fill="#E6E7E8" points="292.168,501.558 292.168,474.674 285.971,474.674 285.971,467.462 300.017,467.462 300.017,501.558 
	306.21,501.558 306.21,508.771 285.971,508.771 285.971,501.558 "/>
<path fill="#E6E7E8" d="M291.052,453.422c0-1.311,0.445-2.447,1.343-3.413c0.894-0.97,2.03-1.45,3.407-1.45
	c1.293,0,2.409,0.467,3.346,1.405c0.937,0.939,1.406,2.093,1.406,3.458c0,1.366-0.469,2.524-1.406,3.477
	c-0.937,0.957-2.052,1.433-3.346,1.433c-1.323,0-2.443-0.485-3.366-1.455C291.515,455.91,291.052,454.761,291.052,453.422z"/>
<path fill="#E6E7E8" d="M348.799,467.462v15.619h-7.022c-0.359-2.986-1.536-5.276-3.532-6.871c-1.997-1.594-4.316-2.389-6.959-2.389
	c-3.525,0-6.391,1.288-8.594,3.862c-2.203,2.573-3.305,5.95-3.305,10.136c0,3.898,1.048,7.33,3.141,10.303
	c2.091,2.973,5.12,4.46,9.088,4.46c5.508,0,9.501-2.699,11.978-8.106l6.488,3.157c-3.582,8.223-9.847,12.332-18.795,12.332
	c-6.334,0-11.32-2.231-14.953-6.7c-3.635-4.465-5.452-9.615-5.452-15.445c0-6.233,1.98-11.376,5.946-15.427
	c3.965-4.056,8.538-6.085,13.713-6.085c4.433,0,8.181,1.352,11.237,4.055v-2.9H348.799z"/>
<path fill="#E6E7E8" d="M361.232,501.558V456.62h-7.188v-7.208h15.036v37.083l14.956-12.333h-6.651v-6.7h22.101v6.7h-6.112
	l-15,12.89l14.088,14.506h7.024v7.213h-10.289l-20.116-20.78v13.567h6.898v7.213h-21.935v-7.213H361.232z"/>
<path fill="#E6E7E8" d="M216.159,515.615l-2.533-1.114c7.918-0.66,15.032-3.422,21.342-8.29c0.689-0.53,1.334-1.078,1.976-1.622
	c-2.376-1.98-4.168-4.491-5.362-7.293c-0.838-1.15-1.491-2.435-1.909-3.804c-0.072,0.08-0.137,0.17-0.211,0.251
	c-5.73,6.539-13.053,9.809-21.961,9.809c-8.994,0-16.253-3.197-21.78-9.593c-4.662-5.39-7.318-11.884-8.05-19.446
	c-4.693-1.626-9.517-2.74-14.38-3.692c0.067,5.322,0.99,10.676,2.818,16.056c1.897,5.587,5.248,10.806,10.053,15.651
	c4.805,4.847,10.673,8.363,17.603,10.55c-3.918,0.826-7.094,2.556-9.528,5.196l3.651,5.264c2.228-2.044,5.174-3.063,8.848-3.063
	c3.548,0,8.414,1.49,14.6,4.468c7.177,3.472,12.807,5.21,16.891,5.21c1.028,0,2.165-0.104,3.404-0.306l4.576-10.644
	c-1.854,0.373-3.361,0.557-4.516,0.557C228.061,519.76,222.882,518.377,216.159,515.615z"/>
<rect x="412.455" y="467.462" fill="#E6E7E8" width="46.375" height="6.754"/>
<rect x="412.455" y="484.254" fill="#E6E7E8" width="36.647" height="6.75"/>
<rect x="412.455" y="501.05" fill="#FFFFFF" width="26.524" height="6.746"/>
<path fill="#DB0A5B" d="M209.369,445.823c-14.843,0.09-26.863,12.014-27.137,26.812h27.137V445.823z"/>
<linearGradient id="SVGID_9_" gradientUnits="userSpaceOnUse" x1="247.0811" y1="94.4419" x2="153.748" y2="119.776">
	<stop  offset="0" style="stop-color:#20D6DE"/>
	<stop  offset="1" style="stop-color:#C24AD2"/>
</linearGradient>
<path fill="url(#SVGID_9_)" d="M185.539,104.194c-1.644,0.894-3.223,1.895-4.72,3.026c2.56,3.364,5.142,6.715,7.725,10.064
	c1.383-1.23,2.868-2.272,4.428-3.161C190.468,110.832,187.996,107.522,185.539,104.194z"/>
<g>
	<path fill="#58595B" d="M267.029,208.908l3.479,2.008c-0.781,3.067-2.36,5.447-4.736,7.136c-2.375,1.685-5.106,2.528-8.196,2.528
		c-4.046,0-7.295-1.356-9.741-4.068c-2.447-2.713-3.669-6.067-3.669-10.064c0-4.384,1.228-7.868,3.687-10.46
		c2.461-2.596,5.668-3.894,9.629-3.894c3.497,0,6.436,0.987,8.818,2.959v-2.52h3.458v8.87H266.3
		c-0.771-1.796-1.952-3.193-3.555-4.177c-1.601-0.987-3.285-1.478-5.053-1.478c-2.665,0-4.85,0.993-6.563,2.974
		c-1.709,1.989-2.562,4.495-2.562,7.526c0,3.108,0.912,5.65,2.744,7.622c1.833,1.972,4.006,2.955,6.517,2.955
		c2.062,0,3.939-0.683,5.63-2.053C265.148,213.408,266.338,211.45,267.029,208.908z"/>
	<path fill="#58595B" d="M292.777,216.79v3.354h-6.377v-2.34c-1.77,1.77-3.741,2.659-5.919,2.659c-1.689,0-3.16-0.57-4.41-1.707
		c-1.249-1.136-1.871-2.596-1.871-4.369c0-1.788,0.66-3.27,1.987-4.446c1.325-1.177,2.923-1.77,4.792-1.77
		c1.742,0,3.426,0.543,5.057,1.63v-1.904c0-0.979-0.09-1.733-0.27-2.264c-0.179-0.534-0.599-1.006-1.262-1.433
		c-0.658-0.422-1.518-0.633-2.583-0.633c-1.833,0-3.157,0.754-3.977,2.264l-3.497-0.957c1.549-2.991,4.226-4.482,8.03-4.482
		c1.396,0,2.604,0.193,3.622,0.584c1.017,0.391,1.778,0.894,2.277,1.509c0.5,0.616,0.837,1.28,1.008,1.999
		c0.175,0.71,0.26,1.851,0.26,3.413v8.893H292.777z M286.036,212.999c-1.576-1.271-3.17-1.903-4.788-1.903
		c-1.01,0-1.857,0.301-2.535,0.907c-0.678,0.61-1.017,1.4-1.017,2.366c0,0.898,0.296,1.653,0.894,2.259
		c0.593,0.611,1.406,0.916,2.43,0.916c1.768,0,3.44-0.768,5.017-2.304V212.999z"/>
	<path fill="#58595B" d="M297.89,216.79v-12.508h-3.748v-3.354h6.669v4.324c0.409-1.122,0.979-2.057,1.711-2.793
		c0.728-0.745,1.5-1.23,2.313-1.469c0.813-0.242,1.922-0.359,3.333-0.359h0.961v3.813h-0.73c-1.857,0-3.245,0.188-4.159,0.574
		c-0.918,0.382-1.597,1.078-2.037,2.093c-0.445,1.016-0.665,2.83-0.665,5.452v4.227h4.055v3.354h-11.452v-3.354H297.89z"/>
	<path fill="#58595B" d="M323.617,216.686v-20.699h-3.379v-3.454h20.733v8.317h-3.306v-4.863h-10.01v8.178h8.627v3.454h-8.627v9.067
		h3.42v3.458h-10.837v-3.458H323.617z"/>
	<path fill="#58595B" d="M345.408,216.79v-12.508h-2.883v-3.354h6.535v15.862h2.883v3.354h-9.418v-3.354H345.408z M344.889,194.397
		c0-0.611,0.209-1.137,0.624-1.585c0.416-0.454,0.946-0.679,1.585-0.679c0.604,0,1.121,0.221,1.556,0.656s0.656,0.97,0.656,1.607
		c0,0.633-0.22,1.177-0.656,1.617c-0.436,0.444-0.952,0.664-1.556,0.664c-0.615,0-1.134-0.225-1.567-0.674
		C345.103,195.555,344.889,195.017,344.889,194.397z"/>
	<path fill="#58595B" d="M360.705,200.927v2.321c2.34-1.747,4.482-2.618,6.416-2.618c1.206,0,2.203,0.297,2.986,0.885
		c0.788,0.589,1.305,1.307,1.547,2.16c0.247,0.854,0.364,2.103,0.364,3.746v9.368h3.135v3.354h-6.782v-12.565
		c0-1.455-0.211-2.407-0.635-2.848c-0.424-0.444-0.943-0.665-1.556-0.665c-1.612,0-3.44,0.809-5.475,2.443v10.28h3.207v3.354
		h-10.127v-3.354h3.27v-12.508h-3.27v-3.354H360.705z"/>
	<path fill="#58595B" d="M395.672,216.79v3.354h-6.382v-2.34c-1.765,1.77-3.736,2.659-5.915,2.659c-1.688,0-3.162-0.57-4.41-1.707
		c-1.249-1.136-1.873-2.596-1.873-4.369c0-1.788,0.665-3.27,1.99-4.446s2.924-1.77,4.792-1.77c1.743,0,3.427,0.543,5.052,1.63
		v-1.904c0-0.979-0.09-1.733-0.265-2.264c-0.18-0.534-0.598-1.006-1.262-1.433c-0.66-0.422-1.522-0.633-2.583-0.633
		c-1.832,0-3.157,0.754-3.979,2.264l-3.494-0.957c1.545-2.991,4.226-4.482,8.035-4.482c1.392,0,2.596,0.193,3.615,0.584
		c1.024,0.391,1.783,0.894,2.282,1.509c0.499,0.616,0.831,1.28,1.006,1.999c0.171,0.71,0.256,1.851,0.256,3.413v8.893H395.672z
		 M388.926,212.999c-1.572-1.271-3.166-1.903-4.783-1.903c-1.011,0-1.855,0.301-2.538,0.907c-0.674,0.61-1.015,1.4-1.015,2.366
		c0,0.898,0.296,1.653,0.889,2.259c0.598,0.611,1.411,0.916,2.435,0.916c1.77,0,3.44-0.768,5.012-2.304V212.999z"/>
	<path fill="#58595B" d="M404.151,200.927v2.321c2.34-1.747,4.482-2.618,6.417-2.618c1.199,0,2.196,0.297,2.982,0.885
		c0.791,0.589,1.303,1.307,1.55,2.16c0.242,0.854,0.364,2.103,0.364,3.746v9.368h3.13v3.354h-6.777v-12.565
		c0-1.455-0.215-2.407-0.638-2.848c-0.422-0.444-0.943-0.665-1.554-0.665c-1.617,0-3.445,0.809-5.475,2.443v10.28h3.207v3.354
		H397.23v-3.354h3.265v-12.508h-3.265v-3.354H404.151z"/>
	<path fill="#58595B" d="M437.753,200.927v7.262h-3.265c-0.166-1.388-0.714-2.452-1.644-3.193c-0.93-0.736-2.007-1.109-3.238-1.109
		c-1.639,0-2.973,0.598-3.997,1.797s-1.536,2.767-1.536,4.711c0,1.814,0.485,3.413,1.464,4.797c0.97,1.383,2.38,2.074,4.222,2.074
		c2.564,0,4.424-1.257,5.573-3.772l3.014,1.469c-1.662,3.826-4.576,5.74-8.74,5.74c-2.946,0-5.263-1.042-6.952-3.117
		c-1.693-2.079-2.537-4.474-2.537-7.19c0-2.896,0.92-5.286,2.762-7.172c1.846-1.887,3.975-2.83,6.386-2.83
		c2.057,0,3.8,0.629,5.223,1.887v-1.352H437.753z"/>
	<path fill="#58595B" d="M460.33,211.486h-15.638c0.229,1.773,0.907,3.211,2.039,4.312c1.127,1.096,2.564,1.647,4.321,1.647
		c2.546,0,4.567-1.06,6.049-3.18l3.229,1.474c-1.046,1.68-2.412,2.928-4.091,3.741c-1.68,0.813-3.436,1.222-5.264,1.222
		c-2.843,0-5.277-0.917-7.293-2.749c-2.017-1.837-3.022-4.307-3.022-7.415c0-2.95,0.979-5.385,2.941-7.289
		c1.972-1.904,4.227-2.856,6.777-2.856c2.497,0,4.765,0.93,6.795,2.789C459.198,205.041,460.254,207.812,460.33,211.486z
		 M456.566,208.75c-0.256-1.352-0.934-2.573-2.039-3.665c-1.101-1.091-2.452-1.639-4.051-1.639c-1.459,0-2.712,0.494-3.746,1.481
		c-1.042,0.983-1.675,2.26-1.909,3.822H456.566z"/>
</g>
<path fill="#231F20" d="M216.159,187.248l-2.533-1.114c7.918-0.66,15.032-3.422,21.342-8.29c0.689-0.53,1.334-1.078,1.976-1.622
	c-2.376-1.98-4.168-4.491-5.362-7.293c-0.838-1.15-1.491-2.435-1.909-3.804c-0.072,0.08-0.137,0.17-0.211,0.251
	c-5.73,6.539-13.053,9.809-21.961,9.809c-8.994,0-16.253-3.197-21.78-9.593c-4.662-5.39-7.318-11.884-8.05-19.446
	c-4.693-1.626-9.517-2.74-14.38-3.692c0.067,5.322,0.99,10.676,2.818,16.056c1.897,5.587,5.248,10.806,10.053,15.651
	c4.805,4.847,10.673,8.363,17.603,10.55c-3.918,0.826-7.094,2.556-9.528,5.196l3.651,5.264c2.228-2.044,5.174-3.063,8.848-3.063
	c3.548,0,8.414,1.49,14.6,4.468c7.177,3.472,12.807,5.21,16.891,5.21c1.028,0,2.165-0.104,3.404-0.306l4.576-10.644
	c-1.854,0.373-3.361,0.557-4.516,0.557C228.061,191.392,222.882,190.009,216.159,187.248z"/>
<linearGradient id="SVGID_10_" gradientUnits="userSpaceOnUse" x1="246.5054" y1="92.3174" x2="153.1723" y2="117.6515">
	<stop  offset="0" style="stop-color:#20D6DE"/>
	<stop  offset="1" style="stop-color:#C24AD2"/>
</linearGradient>
<path fill="url(#SVGID_10_)" d="M199.163,98.799c-1.844,0.306-3.665,0.729-5.45,1.303c1.304,4.024,2.641,8.039,3.974,12.05
	c1.713-0.705,3.456-1.199,5.223-1.527C201.63,106.695,200.386,102.756,199.163,98.799z"/>
<linearGradient id="SVGID_11_" gradientUnits="userSpaceOnUse" x1="247.0337" y1="94.2666" x2="153.7011" y2="119.6006">
	<stop  offset="0" style="stop-color:#20D6DE"/>
	<stop  offset="1" style="stop-color:#C24AD2"/>
</linearGradient>
<path fill="url(#SVGID_11_)" d="M212.553,98.341c-1.853-0.251-3.716-0.377-5.596-0.346c0.081,4.227,0.188,8.457,0.296,12.683
	c1.841-0.175,3.656-0.139,5.438,0.059C212.616,106.605,212.571,102.473,212.553,98.341z"/>
<linearGradient id="SVGID_12_" gradientUnits="userSpaceOnUse" x1="248.584" y1="99.9761" x2="155.251" y2="125.3101">
	<stop  offset="0" style="stop-color:#20D6DE"/>
	<stop  offset="1" style="stop-color:#C24AD2"/>
</linearGradient>
<path fill="url(#SVGID_12_)" d="M174.257,113.414c-1.318,1.334-2.54,2.744-3.647,4.263c3.422,2.483,6.862,4.944,10.303,7.405
	c0.965-1.576,2.088-3,3.323-4.303C180.891,118.349,177.567,115.893,174.257,113.414z"/>
<linearGradient id="SVGID_13_" gradientUnits="userSpaceOnUse" x1="251.4341" y1="110.4668" x2="158.0978" y2="135.8018">
	<stop  offset="0" style="stop-color:#20D6DE"/>
	<stop  offset="1" style="stop-color:#C24AD2"/>
</linearGradient>
<path fill="url(#SVGID_13_)" d="M165.428,128.199c-0.732,1.725-1.343,3.489-1.81,5.309c4.098,1.037,8.207,2.052,12.314,3.067
	c0.314-1.828,0.826-3.566,1.491-5.232C173.417,130.323,169.42,129.276,165.428,128.199z"/>
<linearGradient id="SVGID_14_" gradientUnits="userSpaceOnUse" x1="250.2085" y1="105.9653" x2="156.8789" y2="131.2985">
	<stop  offset="0" style="stop-color:#20D6DE"/>
	<stop  offset="1" style="stop-color:#C24AD2"/>
</linearGradient>
<path fill="url(#SVGID_14_)" d="M233.497,104.364c1.646,0.895,3.222,1.896,4.72,3.027c-2.56,3.364-5.145,6.714-7.727,10.064
	c-1.383-1.23-2.865-2.272-4.424-3.161C228.568,111.002,231.042,107.692,233.497,104.364z"/>
<linearGradient id="SVGID_15_" gradientUnits="userSpaceOnUse" x1="248.2822" y1="98.8638" x2="154.9492" y2="124.1978">
	<stop  offset="0" style="stop-color:#20D6DE"/>
	<stop  offset="1" style="stop-color:#C24AD2"/>
</linearGradient>
<path fill="url(#SVGID_15_)" d="M221.414,99.338c1.828,0.387,3.629,0.89,5.385,1.55c-1.489,3.957-3.004,7.904-4.52,11.852
	c-1.68-0.785-3.397-1.355-5.147-1.765C218.586,107.108,220.012,103.228,221.414,99.338z"/>
<linearGradient id="SVGID_16_" gradientUnits="userSpaceOnUse" x1="253.2959" y1="117.3359" x2="159.9629" y2="142.67">
	<stop  offset="0" style="stop-color:#20D6DE"/>
	<stop  offset="1" style="stop-color:#C24AD2"/>
</linearGradient>
<path fill="url(#SVGID_16_)" d="M244.619,114.761c1.316,1.329,2.537,2.739,3.645,4.258c-3.42,2.483-6.862,4.944-10.3,7.41
	c-0.968-1.581-2.088-3.005-3.326-4.308C237.983,119.692,241.307,117.236,244.619,114.761z"/>
<path fill="#231F20" d="M282.378,173.19v7.213h-14.747v-4.738c-4.599,3.615-9.004,5.421-13.217,5.421
	c-2.672,0-4.882-0.606-6.629-1.814c-1.751-1.208-2.915-2.771-3.492-4.693s-0.867-5.012-0.867-9.283v-18.988h-6.91v-7.212h14.758
	v25.177c0,3.045,0.081,5.093,0.247,6.148c0.166,1.051,0.646,1.917,1.446,2.6c0.8,0.683,1.803,1.024,3.014,1.024
	c3.636,0,7.518-1.792,11.65-5.376v-22.361h-7.064v-7.212h14.913v34.096H282.378z"/>
<polygon fill="#231F20" points="292.168,173.19 292.168,146.306 285.971,146.306 285.971,139.094 300.017,139.094 300.017,173.19 
	306.21,173.19 306.21,180.403 285.971,180.403 285.971,173.19 "/>
<path fill="#231F20" d="M291.052,125.054c0-1.311,0.445-2.447,1.343-3.413c0.894-0.97,2.03-1.45,3.407-1.45
	c1.293,0,2.409,0.467,3.346,1.405c0.937,0.939,1.406,2.093,1.406,3.458c0,1.366-0.469,2.524-1.406,3.477
	c-0.937,0.957-2.052,1.433-3.346,1.433c-1.323,0-2.443-0.485-3.366-1.455C291.515,127.542,291.052,126.393,291.052,125.054z"/>
<path fill="#231F20" d="M348.799,139.094v15.619h-7.022c-0.359-2.986-1.536-5.276-3.532-6.871c-1.997-1.594-4.316-2.389-6.959-2.389
	c-3.525,0-6.391,1.288-8.594,3.862c-2.203,2.573-3.305,5.95-3.305,10.136c0,3.898,1.048,7.33,3.141,10.303
	c2.091,2.973,5.12,4.46,9.088,4.46c5.508,0,9.501-2.699,11.978-8.106l6.488,3.157c-3.582,8.223-9.847,12.332-18.795,12.332
	c-6.334,0-11.32-2.231-14.953-6.7c-3.635-4.465-5.452-9.615-5.452-15.445c0-6.233,1.98-11.376,5.946-15.427
	c3.965-4.056,8.538-6.085,13.713-6.085c4.433,0,8.181,1.352,11.237,4.055v-2.9H348.799z"/>
<path fill="#231F20" d="M361.232,173.19v-44.938h-7.188v-7.208h15.036v37.083l14.956-12.333h-6.651v-6.7h22.101v6.7h-6.112
	l-15,12.89l14.088,14.506h7.024v7.213h-10.289l-20.116-20.78v13.567h6.898v7.213h-21.935v-7.213H361.232z"/>
<path fill="#231F20" d="M216.159,187.248l-2.533-1.114c7.918-0.66,15.032-3.422,21.342-8.29c0.689-0.53,1.334-1.078,1.976-1.622
	c-2.376-1.98-4.168-4.491-5.362-7.293c-0.838-1.15-1.491-2.435-1.909-3.804c-0.072,0.08-0.137,0.17-0.211,0.251
	c-5.73,6.539-13.053,9.809-21.961,9.809c-8.994,0-16.253-3.197-21.78-9.593c-4.662-5.39-7.318-11.884-8.05-19.446
	c-4.693-1.626-9.517-2.74-14.38-3.692c0.067,5.322,0.99,10.676,2.818,16.056c1.897,5.587,5.248,10.806,10.053,15.651
	c4.805,4.847,10.673,8.363,17.603,10.55c-3.918,0.826-7.094,2.556-9.528,5.196l3.651,5.264c2.228-2.044,5.174-3.063,8.848-3.063
	c3.548,0,8.414,1.49,14.6,4.468c7.177,3.472,12.807,5.21,16.891,5.21c1.028,0,2.165-0.104,3.404-0.306l4.576-10.644
	c-1.854,0.373-3.361,0.557-4.516,0.557C228.061,191.392,222.882,190.009,216.159,187.248z"/>
<rect x="412.455" y="139.094" fill="#231F20" width="46.375" height="6.754"/>
<rect x="412.455" y="155.886" fill="#231F20" width="36.647" height="6.75"/>
<rect x="412.455" y="172.682" fill="#231F20" width="26.524" height="6.746"/>
<path fill="#DB0A5B" d="M209.369,117.456c-14.843,0.09-26.863,12.014-27.137,26.812h27.137V117.456z"/>
</svg>
