<?xml version="1.0" encoding="utf-8"?>
<!-- Generator: Adobe Illustrator 16.0.0, SVG Export Plug-In . SVG Version: 6.00 Build 0)  -->
<!DOCTYPE svg PUBLIC "-//W3C//DTD SVG 1.1//EN" "http://www.w3.org/Graphics/SVG/1.1/DTD/svg11.dtd">
<svg version="1.1" id="Layer_1" xmlns="http://www.w3.org/2000/svg" xmlns:xlink="http://www.w3.org/1999/xlink" x="0px" y="0px"
	 width="278px" height="72px" viewBox="0 0 278 72" enable-background="new 0 0 278 72" xml:space="preserve">
<g>
	<linearGradient id="SVGID_1_" gradientUnits="userSpaceOnUse" x1="54.5376" y1="2.8774" x2="-3.0536" y2="18.5099">
		<stop  offset="0" style="stop-color:#20D6DE"/>
		<stop  offset="1" style="stop-color:#C24AD2"/>
	</linearGradient>
	<path fill="url(#SVGID_1_)" d="M16.563,8.896c-1.015,0.551-1.988,1.169-2.913,1.867c1.58,2.076,3.173,4.143,4.767,6.209
		c0.853-0.759,1.769-1.402,2.732-1.95C19.604,12.991,18.079,10.949,16.563,8.896z"/>
	<path fill="#FFFFFF" d="M35.456,60.14l-1.563-0.688c4.885-0.407,9.274-2.111,13.167-5.115c0.425-0.327,0.823-0.665,1.219-1.001
		c-1.466-1.222-2.571-2.771-3.309-4.499c-0.517-0.71-0.92-1.502-1.178-2.348c-0.044,0.05-0.084,0.104-0.13,0.155
		c-3.536,4.035-8.054,6.052-13.55,6.052c-5.549,0-10.028-1.974-13.438-5.919c-2.876-3.325-4.516-7.332-4.967-11.998
		c-2.896-1.003-5.872-1.69-8.873-2.278c0.042,3.284,0.611,6.587,1.739,9.906c1.171,3.447,3.238,6.667,6.203,9.657
		c2.964,2.99,6.585,5.159,10.86,6.509c-2.417,0.511-4.376,1.577-5.878,3.206l2.253,3.248c1.375-1.261,3.192-1.89,5.459-1.89
		c2.189,0,5.192,0.92,9.008,2.757c4.428,2.142,7.902,3.215,10.422,3.215c0.635,0,1.335-0.064,2.101-0.189l2.823-6.567
		c-1.144,0.23-2.074,0.345-2.786,0.345C42.799,62.697,39.604,61.843,35.456,60.14z"/>
	<linearGradient id="SVGID_2_" gradientUnits="userSpaceOnUse" x1="54.1831" y1="1.5664" x2="-3.4119" y2="17.1999">
		<stop  offset="0" style="stop-color:#20D6DE"/>
		<stop  offset="1" style="stop-color:#C24AD2"/>
	</linearGradient>
	<path fill="url(#SVGID_2_)" d="M24.969,5.567c-1.138,0.188-2.261,0.449-3.363,0.804c0.805,2.483,1.629,4.96,2.453,7.435
		c1.057-0.435,2.132-0.74,3.223-0.942C26.491,10.438,25.724,8.008,24.969,5.567z"/>
	<linearGradient id="SVGID_3_" gradientUnits="userSpaceOnUse" x1="54.502" y1="2.7705" x2="-3.0767" y2="18.3995">
		<stop  offset="0" style="stop-color:#20D6DE"/>
		<stop  offset="1" style="stop-color:#C24AD2"/>
	</linearGradient>
	<path fill="url(#SVGID_3_)" d="M33.23,5.285c-1.143-0.155-2.293-0.233-3.453-0.214c0.05,2.608,0.117,5.218,0.183,7.825
		c1.136-0.108,2.255-0.085,3.355,0.036C33.27,10.383,33.242,7.833,33.23,5.285z"/>
	<linearGradient id="SVGID_4_" gradientUnits="userSpaceOnUse" x1="55.4619" y1="6.293" x2="-2.1255" y2="21.9244">
		<stop  offset="0" style="stop-color:#20D6DE"/>
		<stop  offset="1" style="stop-color:#C24AD2"/>
	</linearGradient>
	<path fill="url(#SVGID_4_)" d="M9.603,14.584c-0.814,0.823-1.567,1.693-2.25,2.63c2.111,1.532,4.234,3.051,6.357,4.569
		c0.595-0.973,1.288-1.851,2.05-2.655C13.695,17.629,11.645,16.114,9.603,14.584z"/>
	<linearGradient id="SVGID_5_" gradientUnits="userSpaceOnUse" x1="57.2188" y1="12.7666" x2="-0.3684" y2="28.3979">
		<stop  offset="0" style="stop-color:#20D6DE"/>
		<stop  offset="1" style="stop-color:#C24AD2"/>
	</linearGradient>
	<path fill="url(#SVGID_5_)" d="M4.154,23.706c-0.451,1.064-0.829,2.153-1.116,3.276c2.528,0.64,5.063,1.266,7.598,1.893
		c0.194-1.128,0.509-2.201,0.919-3.229C9.084,25.017,6.618,24.371,4.154,23.706z"/>
	<linearGradient id="SVGID_6_" gradientUnits="userSpaceOnUse" x1="56.4629" y1="9.9897" x2="-1.1181" y2="25.6194">
		<stop  offset="0" style="stop-color:#20D6DE"/>
		<stop  offset="1" style="stop-color:#C24AD2"/>
	</linearGradient>
	<path fill="url(#SVGID_6_)" d="M46.153,9c1.016,0.552,1.988,1.169,2.912,1.868c-1.579,2.076-3.174,4.142-4.767,6.209
		c-0.854-0.759-1.768-1.402-2.73-1.95C43.112,13.096,44.639,11.054,46.153,9z"/>
	<linearGradient id="SVGID_7_" gradientUnits="userSpaceOnUse" x1="55.2744" y1="5.6064" x2="-2.3097" y2="21.237">
		<stop  offset="0" style="stop-color:#20D6DE"/>
		<stop  offset="1" style="stop-color:#C24AD2"/>
	</linearGradient>
	<path fill="url(#SVGID_7_)" d="M38.698,5.899c1.128,0.239,2.239,0.549,3.322,0.957c-0.918,2.441-1.854,4.876-2.789,7.312
		c-1.036-0.484-2.096-0.836-3.175-1.089C36.954,10.693,37.833,8.299,38.698,5.899z"/>
	<linearGradient id="SVGID_8_" gradientUnits="userSpaceOnUse" x1="58.3691" y1="17.0049" x2="0.7818" y2="32.6362">
		<stop  offset="0" style="stop-color:#20D6DE"/>
		<stop  offset="1" style="stop-color:#C24AD2"/>
	</linearGradient>
	<path fill="url(#SVGID_8_)" d="M53.016,15.415c0.813,0.82,1.565,1.69,2.249,2.627c-2.11,1.532-4.234,3.051-6.355,4.572
		c-0.597-0.975-1.289-1.854-2.052-2.657C48.921,18.458,50.972,16.942,53.016,15.415z"/>
	<path fill="#231F20" d="M35.456,60.14l-1.563-0.688c4.885-0.407,9.274-2.111,13.167-5.115c0.425-0.327,0.823-0.665,1.219-1.001
		c-1.466-1.222-2.571-2.771-3.309-4.499c-0.517-0.71-0.92-1.502-1.178-2.348c-0.044,0.05-0.084,0.104-0.13,0.155
		c-3.536,4.035-8.054,6.052-13.55,6.052c-5.549,0-10.028-1.974-13.438-5.919c-2.876-3.325-4.516-7.332-4.967-11.998
		c-2.896-1.003-5.872-1.69-8.873-2.278c0.042,3.284,0.611,6.587,1.739,9.906c1.171,3.447,3.238,6.667,6.203,9.657
		c2.964,2.99,6.585,5.159,10.86,6.509c-2.417,0.511-4.376,1.577-5.878,3.206l2.253,3.248c1.375-1.261,3.192-1.89,5.459-1.89
		c2.189,0,5.192,0.92,9.008,2.757c4.428,2.142,7.902,3.215,10.422,3.215c0.635,0,1.335-0.064,2.101-0.189l2.823-6.567
		c-1.144,0.23-2.074,0.345-2.786,0.345C42.799,62.697,39.604,61.843,35.456,60.14z"/>
	<path fill="#DB0A5B" d="M31.266,17.078c-9.158,0.056-16.574,7.413-16.743,16.543h16.743V17.078z"/>
</g>
<g>
	<path d="M59.132,32.244c-0.067-0.067-0.25-0.192-0.551-0.376c-0.301-0.184-0.676-0.375-1.127-0.576
		c-0.451-0.2-0.943-0.375-1.478-0.526c-0.535-0.15-1.069-0.226-1.603-0.226c-0.702,0-1.24,0.125-1.616,0.376
		c-0.375,0.25-0.563,0.618-0.563,1.102c0,0.3,0.083,0.551,0.25,0.751c0.167,0.2,0.405,0.38,0.714,0.539
		c0.309,0.159,0.693,0.305,1.152,0.438c0.459,0.134,0.989,0.284,1.59,0.451c0.852,0.234,1.62,0.488,2.304,0.764
		c0.685,0.276,1.269,0.618,1.753,1.027s0.855,0.906,1.115,1.49c0.259,0.586,0.388,1.287,0.388,2.104c0,1.002-0.188,1.85-0.563,2.543
		c-0.376,0.693-0.873,1.252-1.49,1.678c-0.618,0.426-1.332,0.736-2.142,0.928c-0.81,0.191-1.641,0.287-2.492,0.287
		c-0.651,0-1.315-0.049-1.992-0.15c-0.676-0.1-1.34-0.246-1.991-0.438s-1.286-0.422-1.903-0.689
		c-0.618-0.266-1.186-0.576-1.704-0.926l1.804-3.582c0.083,0.084,0.309,0.242,0.676,0.477c0.367,0.232,0.818,0.467,1.353,0.701
		c0.534,0.232,1.135,0.441,1.803,0.625s1.344,0.275,2.029,0.275c1.453,0,2.179-0.441,2.179-1.326c0-0.334-0.108-0.609-0.326-0.828
		c-0.217-0.217-0.518-0.412-0.901-0.588c-0.384-0.176-0.835-0.338-1.353-0.488c-0.518-0.15-1.086-0.316-1.704-0.502
		c-0.818-0.25-1.528-0.521-2.129-0.813c-0.601-0.292-1.102-0.63-1.503-1.015c-0.4-0.384-0.697-0.827-0.889-1.328
		c-0.192-0.5-0.288-1.085-0.288-1.753c0-0.935,0.175-1.762,0.526-2.48c0.351-0.718,0.826-1.323,1.428-1.816
		c0.601-0.492,1.298-0.864,2.091-1.115c0.793-0.25,1.632-0.375,2.517-0.375c0.635,0,1.252,0.059,1.854,0.175
		c0.601,0.117,1.173,0.267,1.716,0.451c0.542,0.184,1.056,0.393,1.541,0.626c0.484,0.234,0.918,0.468,1.302,0.701L59.132,32.244z"/>
	<path d="M76.365,41.211v3.607H63.866V27.034h12.273v3.607h-8.166v3.457h7.013v3.332h-7.013v3.781H76.365z"/>
	<path d="M92.47,30.641h-5.41v14.177h-4.108V30.641h-5.435v-3.607H92.47V30.641z"/>
	<path d="M101.287,27.034l3.832,8.166l3.908-8.166h4.458l-6.312,11.722v6.063h-4.108v-6.111l-6.237-11.673H101.287z"/>
	<path d="M121.45,44.969c-1.269,0-2.421-0.26-3.457-0.777c-1.036-0.518-1.925-1.197-2.667-2.041
		c-0.743-0.844-1.319-1.807-1.729-2.893s-0.614-2.205-0.614-3.357c0-1.168,0.213-2.296,0.639-3.381s1.019-2.042,1.779-2.868
		c0.759-0.827,1.661-1.486,2.705-1.979c1.043-0.493,2.183-0.739,3.419-0.739c1.269,0,2.421,0.259,3.457,0.777
		c1.035,0.518,1.924,1.202,2.667,2.054c0.743,0.852,1.315,1.82,1.716,2.906s0.601,2.188,0.601,3.306
		c0,1.168-0.213,2.295-0.639,3.381s-1.015,2.041-1.766,2.867c-0.751,0.828-1.649,1.49-2.693,1.992
		C123.825,44.717,122.686,44.969,121.45,44.969z M117.167,35.951c0,0.685,0.096,1.348,0.288,1.99
		c0.192,0.645,0.467,1.215,0.827,1.717c0.359,0.5,0.81,0.902,1.353,1.201c0.542,0.301,1.165,0.451,1.866,0.451
		c0.718,0,1.344-0.158,1.878-0.475c0.534-0.318,0.98-0.73,1.34-1.24c0.359-0.51,0.626-1.086,0.802-1.729s0.263-1.298,0.263-1.966
		c0-0.685-0.096-1.348-0.288-1.991c-0.192-0.643-0.472-1.21-0.839-1.703c-0.368-0.493-0.818-0.885-1.353-1.177
		c-0.535-0.292-1.144-0.438-1.829-0.438c-0.718,0-1.344,0.155-1.878,0.463c-0.535,0.309-0.981,0.714-1.34,1.215
		s-0.63,1.073-0.814,1.716C117.259,34.628,117.167,35.283,117.167,35.951z"/>
	<path d="M139.986,41.311c0.702,0,1.293-0.145,1.778-0.438s0.877-0.68,1.178-1.164s0.514-1.041,0.639-1.666
		c0.125-0.627,0.188-1.266,0.188-1.917v-9.092h4.107v9.092c0,1.235-0.154,2.387-0.463,3.456c-0.309,1.07-0.785,2.004-1.428,2.807
		c-0.643,0.801-1.461,1.432-2.455,1.891c-0.993,0.459-2.175,0.689-3.543,0.689c-1.419,0-2.63-0.242-3.632-0.727
		c-1.002-0.484-1.816-1.131-2.442-1.941s-1.085-1.75-1.377-2.818c-0.292-1.068-0.438-2.188-0.438-3.356v-9.092h4.108v9.092
		c0,0.685,0.066,1.336,0.2,1.954c0.133,0.617,0.351,1.17,0.651,1.652c0.3,0.484,0.689,0.869,1.165,1.152
		C138.696,41.17,139.284,41.311,139.986,41.311z"/>
	<path d="M151.031,44.818V27.034h8.016c0.834,0,1.606,0.175,2.316,0.526s1.323,0.81,1.841,1.377
		c0.518,0.568,0.923,1.211,1.215,1.929c0.292,0.718,0.438,1.445,0.438,2.179c0,0.551-0.066,1.082-0.2,1.591s-0.325,0.989-0.576,1.44
		c-0.25,0.451-0.556,0.856-0.914,1.215c-0.359,0.359-0.764,0.664-1.215,0.914l4.083,6.613h-4.634l-3.582-5.736h-2.681v5.736H151.031
		z M155.139,35.5h3.758c0.484,0,0.901-0.229,1.252-0.688s0.526-1.048,0.526-1.766c0-0.734-0.201-1.319-0.601-1.753
		c-0.401-0.434-0.836-0.651-1.303-0.651h-3.633V35.5z"/>
	<path d="M188.603,40.26c0,0.768-0.159,1.436-0.476,2.004c-0.317,0.566-0.752,1.039-1.303,1.414
		c-0.551,0.377-1.194,0.66-1.929,0.852c-0.735,0.193-1.512,0.289-2.329,0.289h-8.667V27.034h9.894c0.618,0,1.178,0.134,1.679,0.4
		c0.501,0.268,0.927,0.614,1.277,1.04s0.622,0.911,0.814,1.453c0.191,0.542,0.288,1.098,0.288,1.666c0,0.852-0.213,1.653-0.64,2.404
		c-0.426,0.751-1.064,1.319-1.916,1.704c1.019,0.3,1.824,0.835,2.417,1.602C188.306,38.072,188.603,39.057,188.603,40.26z
		 M178.008,30.541v3.682h4.032c0.451,0,0.852-0.15,1.202-0.451c0.351-0.301,0.526-0.768,0.526-1.403
		c0-0.584-0.155-1.035-0.464-1.353c-0.309-0.317-0.681-0.476-1.114-0.476H178.008z M184.42,39.434c0-0.553-0.159-1.02-0.477-1.404
		c-0.317-0.383-0.718-0.576-1.202-0.576h-4.733v3.883h4.559c0.534,0,0.977-0.176,1.327-0.525
		C184.244,40.459,184.42,40,184.42,39.434z"/>
	<path d="M198.646,41.311c0.702,0,1.294-0.145,1.778-0.438s0.877-0.68,1.178-1.164s0.514-1.041,0.639-1.666
		c0.125-0.627,0.188-1.266,0.188-1.917v-9.092h4.108v9.092c0,1.235-0.155,2.387-0.464,3.456c-0.309,1.07-0.785,2.004-1.428,2.807
		c-0.643,0.801-1.461,1.432-2.454,1.891c-0.994,0.459-2.176,0.689-3.545,0.689c-1.419,0-2.63-0.242-3.632-0.727
		s-1.815-1.131-2.441-1.941c-0.627-0.811-1.086-1.75-1.378-2.818c-0.293-1.068-0.438-2.188-0.438-3.356v-9.092h4.107v9.092
		c0,0.685,0.067,1.336,0.201,1.954c0.133,0.617,0.351,1.17,0.65,1.652c0.301,0.484,0.689,0.869,1.165,1.152
		C197.355,41.17,197.944,41.311,198.646,41.311z"/>
	<path d="M209.692,44.818V27.034h6.638c1.47,0,2.755,0.234,3.857,0.701c1.103,0.468,2.024,1.102,2.768,1.904
		c0.743,0.801,1.303,1.741,1.679,2.818c0.375,1.077,0.563,2.225,0.563,3.444c0,1.353-0.209,2.576-0.626,3.669
		c-0.418,1.094-1.015,2.029-1.791,2.805c-0.776,0.777-1.712,1.379-2.806,1.805s-2.309,0.639-3.645,0.639H209.692z M221.014,35.901
		c0-0.785-0.104-1.499-0.313-2.142c-0.209-0.643-0.514-1.198-0.914-1.666c-0.401-0.467-0.894-0.827-1.479-1.077
		c-0.584-0.25-1.244-0.375-1.979-0.375h-2.529v10.57h2.529c0.752,0,1.419-0.133,2.004-0.4c0.584-0.268,1.072-0.639,1.465-1.115
		s0.693-1.035,0.902-1.678C220.909,37.375,221.014,36.669,221.014,35.901z"/>
	<path d="M239.174,43.09c-0.635,0.635-1.308,1.102-2.017,1.402c-0.71,0.301-1.482,0.451-2.317,0.451
		c-1.118,0-2.175-0.25-3.168-0.752c-0.994-0.5-1.862-1.168-2.605-2.004c-0.743-0.834-1.332-1.807-1.766-2.918
		c-0.435-1.109-0.651-2.266-0.651-3.469c0-1.219,0.217-2.371,0.651-3.457c0.434-1.085,1.035-2.029,1.804-2.831
		c0.768-0.801,1.669-1.436,2.705-1.903c1.035-0.468,2.154-0.702,3.356-0.702c1.569,0,2.947,0.347,4.133,1.04
		c1.186,0.693,2.07,1.641,2.655,2.843l-3.081,2.305c-0.368-0.802-0.898-1.423-1.591-1.866c-0.693-0.442-1.44-0.664-2.241-0.664
		c-0.636,0-1.207,0.138-1.716,0.413c-0.51,0.275-0.952,0.66-1.328,1.152s-0.664,1.064-0.864,1.716c-0.2,0.651-0.3,1.353-0.3,2.104
		c0,0.768,0.108,1.479,0.325,2.129s0.518,1.215,0.901,1.691c0.384,0.475,0.844,0.848,1.378,1.113
		c0.534,0.268,1.118,0.402,1.753,0.402c0.735,0,1.437-0.18,2.104-0.539s1.294-0.906,1.879-1.641v-0.602h-3.432v-2.98h6.838v9.293
		h-3.406V43.09z"/>
	<path d="M257.809,41.211v3.607H245.31V27.034h12.273v3.607h-8.165v3.457h7.013v3.332h-7.013v3.781H257.809z"/>
	<path d="M273.914,30.641h-5.41v14.177h-4.107V30.641h-5.436v-3.607h14.953V30.641z"/>
</g>
<g>
	<path fill="#868686" d="M55.587,64.75c-0.624,0-1.183-0.133-1.676-0.397c-0.494-0.266-0.907-0.616-1.24-1.053
		c-0.333-0.438-0.588-0.937-0.764-1.498c-0.177-0.561-0.265-1.144-0.265-1.746c0-0.759,0.161-1.526,0.483-2.301
		c0.322-0.774,0.769-1.476,1.341-2.105c0.571-0.629,1.25-1.141,2.035-1.536c0.785-0.395,1.64-0.593,2.565-0.593
		c0.957,0,1.731,0.224,2.324,0.671s0.982,1.029,1.17,1.747l-1.56,0.92c-0.073-0.333-0.188-0.613-0.343-0.842
		c-0.156-0.229-0.341-0.411-0.554-0.546c-0.213-0.136-0.444-0.231-0.694-0.289c-0.25-0.057-0.499-0.086-0.749-0.086
		c-0.635,0-1.211,0.151-1.731,0.452c-0.52,0.302-0.964,0.689-1.333,1.162c-0.369,0.474-0.655,0.996-0.857,1.567
		c-0.203,0.572-0.304,1.129-0.304,1.669c0,0.437,0.057,0.85,0.171,1.24c0.114,0.39,0.281,0.732,0.499,1.029
		c0.218,0.296,0.486,0.53,0.803,0.701c0.317,0.172,0.678,0.258,1.084,0.258c0.25,0,0.517-0.034,0.803-0.102
		c0.286-0.067,0.566-0.177,0.842-0.327c0.275-0.151,0.541-0.341,0.795-0.569c0.254-0.229,0.486-0.505,0.694-0.827l1.279,0.827
		c-0.25,0.416-0.562,0.782-0.936,1.1c-0.375,0.317-0.78,0.585-1.217,0.803c-0.437,0.219-0.886,0.385-1.349,0.499
		C56.443,64.692,56.003,64.75,55.587,64.75z"/>
	<path fill="#868686" d="M63.635,53.271h1.715l-1.029,4.865c0.416-0.561,0.91-0.998,1.481-1.31s1.16-0.468,1.763-0.468
		c0.707,0,1.198,0.187,1.474,0.562c0.275,0.374,0.414,0.848,0.414,1.419c0,0.208-0.013,0.424-0.039,0.647
		c-0.026,0.224-0.065,0.455-0.117,0.694l-1.045,4.975h-1.715l0.967-4.569c0.073-0.333,0.109-0.64,0.109-0.921
		c0-0.437-0.094-0.759-0.281-0.967c-0.188-0.208-0.453-0.312-0.795-0.312c-0.208,0-0.435,0.047-0.679,0.141
		c-0.244,0.093-0.483,0.226-0.717,0.397s-0.452,0.374-0.655,0.608c-0.203,0.233-0.372,0.491-0.507,0.771l-1.045,4.851h-1.715
		L63.635,53.271z"/>
	<path fill="#868686" d="M73.663,64.813c-0.52,0-0.978-0.092-1.373-0.273c-0.396-0.182-0.728-0.426-0.998-0.732
		c-0.271-0.307-0.476-0.666-0.616-1.076c-0.14-0.411-0.21-0.851-0.21-1.318c0-0.655,0.13-1.286,0.39-1.895s0.614-1.146,1.061-1.614
		c0.447-0.468,0.975-0.842,1.583-1.123c0.608-0.28,1.261-0.421,1.958-0.421c0.52,0,0.98,0.091,1.38,0.272
		c0.4,0.183,0.738,0.427,1.014,0.733c0.275,0.307,0.483,0.668,0.624,1.084c0.141,0.416,0.21,0.857,0.21,1.325
		c0,0.646-0.13,1.269-0.39,1.872c-0.26,0.603-0.616,1.139-1.068,1.606s-0.982,0.845-1.591,1.131
		C75.027,64.669,74.37,64.813,73.663,64.813z M73.99,63.347c0.364,0,0.72-0.089,1.068-0.266s0.658-0.418,0.928-0.726
		c0.27-0.307,0.488-0.662,0.655-1.068c0.167-0.405,0.25-0.836,0.25-1.294c0-0.624-0.159-1.141-0.476-1.552
		c-0.317-0.411-0.741-0.616-1.271-0.616c-0.364,0-0.717,0.091-1.061,0.273c-0.343,0.182-0.652,0.426-0.928,0.732
		c-0.276,0.307-0.497,0.663-0.663,1.068c-0.167,0.405-0.25,0.837-0.25,1.295c0,0.623,0.158,1.138,0.476,1.544
		C73.037,63.144,73.46,63.347,73.99,63.347z"/>
	<path fill="#868686" d="M82.74,64.813c-0.52,0-0.978-0.092-1.373-0.273c-0.396-0.182-0.728-0.426-0.998-0.732
		c-0.271-0.307-0.476-0.666-0.616-1.076c-0.14-0.411-0.21-0.851-0.21-1.318c0-0.655,0.13-1.286,0.39-1.895s0.614-1.146,1.061-1.614
		c0.447-0.468,0.975-0.842,1.583-1.123c0.608-0.28,1.261-0.421,1.958-0.421c0.52,0,0.98,0.091,1.38,0.272
		c0.4,0.183,0.738,0.427,1.014,0.733c0.275,0.307,0.483,0.668,0.624,1.084c0.141,0.416,0.21,0.857,0.21,1.325
		c0,0.646-0.13,1.269-0.39,1.872c-0.26,0.603-0.616,1.139-1.068,1.606s-0.982,0.845-1.591,1.131
		C84.104,64.669,83.446,64.813,82.74,64.813z M83.067,63.347c0.364,0,0.72-0.089,1.068-0.266s0.658-0.418,0.928-0.726
		c0.27-0.307,0.488-0.662,0.655-1.068c0.167-0.405,0.25-0.836,0.25-1.294c0-0.624-0.159-1.141-0.476-1.552
		c-0.317-0.411-0.741-0.616-1.271-0.616c-0.364,0-0.717,0.091-1.061,0.273c-0.343,0.182-0.652,0.426-0.928,0.732
		c-0.276,0.307-0.497,0.663-0.663,1.068c-0.167,0.405-0.25,0.837-0.25,1.295c0,0.623,0.158,1.138,0.476,1.544
		C82.113,63.144,82.537,63.347,83.067,63.347z"/>
	<path fill="#868686" d="M91.146,64.813c-0.634,0-1.237-0.107-1.809-0.32s-1.04-0.517-1.404-0.912l0.92-1.092
		c0.78,0.718,1.617,1.076,2.511,1.076c0.53,0,0.957-0.119,1.279-0.358s0.484-0.557,0.484-0.951c0-0.281-0.133-0.494-0.398-0.64
		s-0.678-0.297-1.24-0.452c-0.396-0.114-0.738-0.227-1.029-0.336c-0.292-0.108-0.53-0.233-0.717-0.374
		c-0.188-0.141-0.328-0.299-0.421-0.476c-0.093-0.177-0.14-0.385-0.14-0.624c0-0.457,0.099-0.87,0.296-1.24
		c0.197-0.368,0.462-0.683,0.795-0.943c0.333-0.26,0.717-0.46,1.154-0.601c0.437-0.14,0.899-0.21,1.388-0.21
		c0.582,0,1.102,0.094,1.56,0.28c0.458,0.188,0.853,0.458,1.185,0.812l-0.951,1.029c-0.302-0.302-0.629-0.527-0.982-0.679
		c-0.354-0.15-0.723-0.226-1.107-0.226c-0.458,0-0.848,0.108-1.17,0.327c-0.322,0.218-0.483,0.551-0.483,0.998
		c0,0.26,0.109,0.455,0.328,0.585s0.582,0.263,1.092,0.397c0.437,0.114,0.816,0.234,1.139,0.358c0.322,0.125,0.59,0.263,0.803,0.414
		c0.213,0.15,0.372,0.325,0.476,0.522c0.104,0.197,0.156,0.426,0.156,0.686c0,0.437-0.091,0.835-0.273,1.193
		c-0.182,0.358-0.437,0.668-0.764,0.928c-0.328,0.261-0.72,0.463-1.178,0.608S91.686,64.813,91.146,64.813z"/>
	<path fill="#868686" d="M99.333,64.813c-0.52,0-0.98-0.089-1.38-0.266c-0.4-0.177-0.741-0.418-1.021-0.725
		c-0.281-0.307-0.494-0.671-0.64-1.092c-0.146-0.422-0.218-0.876-0.218-1.365c0-0.665,0.127-1.299,0.382-1.902
		c0.255-0.603,0.608-1.133,1.061-1.591c0.453-0.457,0.988-0.824,1.606-1.1s1.287-0.413,2.004-0.413c0.842,0,1.515,0.189,2.02,0.569
		c0.504,0.38,0.756,0.938,0.756,1.677c0,1.705-1.523,2.558-4.57,2.558c-0.447,0-0.951-0.016-1.513-0.047v0.28
		c0,0.302,0.036,0.583,0.109,0.843c0.072,0.26,0.182,0.488,0.327,0.686c0.146,0.198,0.333,0.352,0.562,0.46
		c0.229,0.109,0.499,0.164,0.811,0.164c0.447,0,0.878-0.111,1.294-0.335s0.743-0.527,0.983-0.913l1.356,0.422
		c-0.197,0.312-0.439,0.595-0.725,0.85s-0.601,0.474-0.943,0.655c-0.343,0.182-0.708,0.325-1.092,0.429
		C100.118,64.76,99.728,64.813,99.333,64.813z M100.908,57.622c-0.374,0-0.717,0.065-1.029,0.195s-0.587,0.304-0.827,0.522
		s-0.442,0.471-0.608,0.757c-0.167,0.286-0.302,0.585-0.406,0.896c0.478,0.031,0.92,0.047,1.326,0.047
		c0.551,0,1.014-0.034,1.388-0.102s0.678-0.161,0.912-0.28c0.234-0.12,0.4-0.266,0.5-0.438c0.099-0.171,0.148-0.36,0.148-0.569
		c0-0.353-0.125-0.613-0.375-0.779S101.345,57.622,100.908,57.622z"/>
	<path fill="#868686" d="M106.959,66.84c0.323-0.031,0.598-0.076,0.827-0.133c0.229-0.058,0.432-0.135,0.608-0.233
		c0.177-0.1,0.34-0.229,0.491-0.391c0.15-0.161,0.309-0.361,0.476-0.601l0.452-0.654l-1.466-8.328h1.762l0.92,6.644l0.53-0.873
		c0.384-0.624,0.715-1.188,0.99-1.692s0.512-0.98,0.709-1.427c0.198-0.447,0.367-0.884,0.507-1.311
		c0.141-0.426,0.268-0.873,0.382-1.341h1.684c-0.146,0.499-0.296,0.967-0.452,1.403c-0.156,0.437-0.354,0.896-0.593,1.38
		s-0.533,1.024-0.881,1.622c-0.349,0.599-0.777,1.313-1.287,2.145l-1.248,2.012c-0.364,0.582-0.708,1.071-1.03,1.466
		c-0.322,0.396-0.647,0.715-0.975,0.96c-0.328,0.244-0.668,0.421-1.021,0.53c-0.354,0.108-0.738,0.163-1.154,0.163L106.959,66.84z"
		/>
	<path fill="#868686" d="M118.969,64.813c-0.52,0-0.978-0.092-1.373-0.273c-0.396-0.182-0.728-0.426-0.998-0.732
		c-0.271-0.307-0.476-0.666-0.616-1.076c-0.14-0.411-0.21-0.851-0.21-1.318c0-0.655,0.13-1.286,0.39-1.895s0.614-1.146,1.061-1.614
		c0.447-0.468,0.975-0.842,1.583-1.123c0.608-0.28,1.261-0.421,1.958-0.421c0.52,0,0.98,0.091,1.38,0.272
		c0.4,0.183,0.738,0.427,1.014,0.733c0.275,0.307,0.483,0.668,0.624,1.084c0.141,0.416,0.21,0.857,0.21,1.325
		c0,0.646-0.13,1.269-0.39,1.872c-0.26,0.603-0.616,1.139-1.068,1.606s-0.982,0.845-1.591,1.131
		C120.333,64.669,119.675,64.813,118.969,64.813z M119.296,63.347c0.364,0,0.72-0.089,1.068-0.266s0.658-0.418,0.928-0.726
		c0.27-0.307,0.488-0.662,0.655-1.068c0.167-0.405,0.25-0.836,0.25-1.294c0-0.624-0.159-1.141-0.476-1.552
		c-0.317-0.411-0.741-0.616-1.271-0.616c-0.364,0-0.717,0.091-1.061,0.273c-0.343,0.182-0.652,0.426-0.928,0.732
		c-0.276,0.307-0.497,0.663-0.663,1.068c-0.167,0.405-0.25,0.837-0.25,1.295c0,0.623,0.158,1.138,0.476,1.544
		C118.342,63.144,118.766,63.347,119.296,63.347z"/>
	<path fill="#868686" d="M126.891,64.813c-1.269,0-1.903-0.676-1.903-2.027c0-0.385,0.052-0.816,0.156-1.295l1.076-4.99h1.7
		l-0.998,4.647c-0.073,0.333-0.109,0.645-0.109,0.936c0,0.842,0.359,1.264,1.076,1.264c0.458,0,0.917-0.151,1.38-0.453
		c0.462-0.301,0.871-0.737,1.224-1.31l1.076-5.084h1.716l-1.294,6.129c-0.031,0.094-0.047,0.172-0.047,0.233
		c0,0.198,0.119,0.308,0.358,0.328l-0.296,1.466c-0.156,0.021-0.292,0.039-0.406,0.055s-0.218,0.023-0.312,0.023
		c-0.312,0-0.556-0.065-0.733-0.195s-0.265-0.324-0.265-0.585c0-0.083,0.01-0.192,0.031-0.327c0.021-0.135,0.057-0.343,0.109-0.624
		c-0.468,0.593-1.009,1.043-1.622,1.35C128.196,64.658,127.557,64.813,126.891,64.813z"/>
	<path fill="#868686" d="M135.438,56.5h1.591l-0.405,1.824c0.395-0.562,0.842-1.014,1.341-1.356
		c0.499-0.344,0.993-0.515,1.481-0.515c0.104,0,0.185,0.002,0.242,0.008c0.057,0.005,0.112,0.013,0.164,0.023l-0.327,1.497
		c-0.624,0.021-1.207,0.174-1.747,0.46s-0.977,0.694-1.31,1.225l-1.061,4.99h-1.715L135.438,56.5z"/>
	<path fill="#868686" d="M146.09,64.813c-0.458,0-0.865-0.089-1.225-0.266c-0.358-0.177-0.663-0.415-0.912-0.717
		c-0.25-0.302-0.439-0.658-0.569-1.068c-0.13-0.411-0.195-0.851-0.195-1.318c0-0.665,0.122-1.305,0.367-1.918
		c0.244-0.613,0.574-1.154,0.99-1.622s0.894-0.842,1.435-1.123c0.541-0.28,1.107-0.421,1.7-0.421s1.089,0.158,1.489,0.476
		s0.684,0.72,0.85,1.209l0.328-1.528h1.73l-1.31,6.113c-0.011,0.052-0.019,0.096-0.023,0.133c-0.005,0.036-0.008,0.069-0.008,0.101
		c0,0.209,0.119,0.317,0.358,0.328l-0.312,1.466c-0.146,0.021-0.278,0.039-0.397,0.055c-0.12,0.016-0.222,0.023-0.305,0.023
		c-0.676,0-1.014-0.271-1.014-0.812c0-0.166,0.036-0.415,0.109-0.748c-0.396,0.53-0.873,0.936-1.435,1.217
		C147.182,64.672,146.63,64.813,146.09,64.813z M146.838,63.347c0.208,0,0.43-0.042,0.663-0.125
		c0.234-0.083,0.463-0.197,0.687-0.344c0.224-0.146,0.429-0.316,0.616-0.515c0.187-0.197,0.338-0.41,0.452-0.639l0.437-2.137
		c-0.031-0.25-0.102-0.481-0.211-0.694c-0.108-0.213-0.247-0.4-0.413-0.562s-0.349-0.286-0.546-0.374
		c-0.197-0.089-0.405-0.133-0.624-0.133c-0.395,0-0.767,0.099-1.114,0.296c-0.349,0.198-0.655,0.453-0.921,0.765
		c-0.265,0.312-0.476,0.668-0.631,1.068c-0.156,0.4-0.234,0.803-0.234,1.209c0,0.312,0.041,0.601,0.125,0.865
		c0.083,0.266,0.205,0.494,0.366,0.687s0.356,0.346,0.585,0.46S146.558,63.347,146.838,63.347z"/>
	<path fill="#868686" d="M154.23,56.5h1.544l-0.344,1.637c0.396-0.561,0.882-0.998,1.459-1.31c0.576-0.312,1.167-0.468,1.77-0.468
		c0.624,0,1.089,0.164,1.396,0.491c0.306,0.327,0.47,0.782,0.491,1.364c0.457-0.603,0.961-1.063,1.513-1.38
		c0.551-0.317,1.133-0.476,1.746-0.476c0.676,0,1.149,0.182,1.42,0.546c0.27,0.364,0.405,0.832,0.405,1.403
		c0,0.188-0.016,0.396-0.047,0.624s-0.073,0.479-0.125,0.749l-1.061,4.975h-1.715l0.967-4.569c0.083-0.396,0.124-0.723,0.124-0.982
		c0-0.812-0.332-1.217-0.998-1.217c-0.447,0-0.896,0.182-1.349,0.546s-0.824,0.826-1.115,1.388l-1.014,4.835h-1.716l0.967-4.569
		c0.053-0.208,0.086-0.391,0.102-0.546c0.016-0.156,0.023-0.307,0.023-0.452c0-0.416-0.086-0.72-0.257-0.913
		c-0.172-0.192-0.414-0.288-0.726-0.288c-0.447,0-0.896,0.177-1.349,0.53c-0.453,0.354-0.819,0.816-1.1,1.388l-1.045,4.851h-1.716
		L154.23,56.5z"/>
	<path fill="#868686" d="M169.811,64.813c-0.52,0-0.978-0.092-1.372-0.273c-0.396-0.182-0.728-0.426-0.998-0.732
		s-0.476-0.666-0.616-1.076c-0.141-0.411-0.211-0.851-0.211-1.318c0-0.655,0.13-1.286,0.391-1.895
		c0.26-0.608,0.613-1.146,1.061-1.614c0.446-0.468,0.975-0.842,1.583-1.123c0.607-0.28,1.26-0.421,1.957-0.421
		c0.52,0,0.979,0.091,1.38,0.272c0.4,0.183,0.738,0.427,1.014,0.733s0.483,0.668,0.624,1.084s0.211,0.857,0.211,1.325
		c0,0.646-0.131,1.269-0.391,1.872c-0.26,0.603-0.615,1.139-1.067,1.606c-0.453,0.468-0.983,0.845-1.591,1.131
		C171.176,64.669,170.518,64.813,169.811,64.813z M170.139,63.347c0.363,0,0.72-0.089,1.068-0.266
		c0.348-0.177,0.657-0.418,0.928-0.726c0.271-0.307,0.488-0.662,0.655-1.068c0.166-0.405,0.249-0.836,0.249-1.294
		c0-0.624-0.158-1.141-0.476-1.552s-0.741-0.616-1.271-0.616c-0.363,0-0.717,0.091-1.06,0.273c-0.344,0.182-0.653,0.426-0.929,0.732
		s-0.496,0.663-0.662,1.068c-0.167,0.405-0.25,0.837-0.25,1.295c0,0.623,0.158,1.138,0.476,1.544
		C169.185,63.144,169.608,63.347,170.139,63.347z"/>
	<path fill="#868686" d="M177.733,64.813c-1.27,0-1.903-0.676-1.903-2.027c0-0.385,0.052-0.816,0.156-1.295l1.076-4.99h1.7
		l-0.999,4.647c-0.072,0.333-0.108,0.645-0.108,0.936c0,0.842,0.358,1.264,1.076,1.264c0.457,0,0.917-0.151,1.38-0.453
		c0.463-0.301,0.871-0.737,1.225-1.31l1.076-5.084h1.715l-1.294,6.129c-0.031,0.094-0.047,0.172-0.047,0.233
		c0,0.198,0.119,0.308,0.358,0.328l-0.296,1.466c-0.156,0.021-0.291,0.039-0.405,0.055c-0.115,0.016-0.219,0.023-0.313,0.023
		c-0.312,0-0.557-0.065-0.732-0.195c-0.178-0.13-0.266-0.324-0.266-0.585c0-0.083,0.011-0.192,0.031-0.327s0.057-0.343,0.109-0.624
		c-0.468,0.593-1.009,1.043-1.622,1.35C179.038,64.658,178.398,64.813,177.733,64.813z"/>
	<path fill="#868686" d="M186.28,56.5h1.544l-0.344,1.637c0.406-0.551,0.921-0.984,1.544-1.302c0.624-0.317,1.279-0.476,1.966-0.476
		c0.343,0,0.629,0.047,0.857,0.141c0.229,0.093,0.413,0.226,0.554,0.397c0.141,0.171,0.242,0.372,0.304,0.601
		c0.063,0.229,0.094,0.483,0.094,0.764c0,0.219-0.019,0.447-0.055,0.687s-0.08,0.483-0.132,0.733l-1.045,4.975h-1.716l0.967-4.569
		c0.041-0.197,0.072-0.377,0.094-0.538c0.021-0.161,0.031-0.314,0.031-0.46c0-0.801-0.333-1.201-0.998-1.201
		c-0.229,0-0.468,0.047-0.718,0.141c-0.249,0.093-0.494,0.226-0.733,0.397s-0.465,0.374-0.678,0.608
		c-0.214,0.233-0.388,0.491-0.522,0.771l-1.045,4.851h-1.716L186.28,56.5z"/>
	<path fill="#868686" d="M195.716,64.781c-0.447,0-0.822-0.107-1.123-0.32c-0.302-0.213-0.452-0.554-0.452-1.021
		c0-0.177,0.021-0.348,0.062-0.515l1.092-5.1h-1.045l0.297-1.325h1.014l0.577-2.683h1.716l-0.577,2.683h1.684l-0.28,1.325h-1.669
		l-0.967,4.554c-0.021,0.104-0.031,0.183-0.031,0.234c0,0.208,0.063,0.358,0.188,0.452c0.124,0.094,0.275,0.141,0.452,0.141
		c0.239,0,0.468-0.042,0.686-0.125c0.219-0.083,0.385-0.15,0.5-0.203l0.062,1.357c-0.239,0.146-0.556,0.272-0.951,0.382
		S196.142,64.781,195.716,64.781z"/>
	<path fill="#868686" d="M205.026,64.781c-0.447,0-0.822-0.107-1.123-0.32c-0.302-0.213-0.452-0.554-0.452-1.021
		c0-0.177,0.021-0.348,0.062-0.515l1.092-5.1h-1.045l0.297-1.325h1.014l0.577-2.683h1.716l-0.577,2.683h1.684l-0.28,1.325h-1.669
		l-0.967,4.554c-0.021,0.104-0.031,0.183-0.031,0.234c0,0.208,0.063,0.358,0.188,0.452c0.124,0.094,0.275,0.141,0.452,0.141
		c0.239,0,0.468-0.042,0.686-0.125c0.219-0.083,0.385-0.15,0.5-0.203l0.062,1.357c-0.239,0.146-0.556,0.272-0.951,0.382
		S205.452,64.781,205.026,64.781z"/>
	<path fill="#868686" d="M211.545,64.813c-0.52,0-0.978-0.092-1.372-0.273c-0.396-0.182-0.728-0.426-0.998-0.732
		s-0.476-0.666-0.616-1.076c-0.141-0.411-0.211-0.851-0.211-1.318c0-0.655,0.13-1.286,0.391-1.895
		c0.26-0.608,0.613-1.146,1.061-1.614c0.446-0.468,0.975-0.842,1.583-1.123c0.607-0.28,1.26-0.421,1.957-0.421
		c0.52,0,0.979,0.091,1.38,0.272c0.4,0.183,0.738,0.427,1.014,0.733s0.483,0.668,0.624,1.084s0.211,0.857,0.211,1.325
		c0,0.646-0.131,1.269-0.391,1.872c-0.26,0.603-0.615,1.139-1.067,1.606c-0.453,0.468-0.983,0.845-1.591,1.131
		C212.91,64.669,212.252,64.813,211.545,64.813z M211.873,63.347c0.363,0,0.72-0.089,1.068-0.266
		c0.348-0.177,0.657-0.418,0.928-0.726c0.271-0.307,0.488-0.662,0.655-1.068c0.166-0.405,0.249-0.836,0.249-1.294
		c0-0.624-0.158-1.141-0.476-1.552s-0.741-0.616-1.271-0.616c-0.363,0-0.717,0.091-1.06,0.273c-0.344,0.182-0.653,0.426-0.929,0.732
		s-0.496,0.663-0.662,1.068c-0.167,0.405-0.25,0.837-0.25,1.295c0,0.623,0.158,1.138,0.476,1.544
		C210.919,63.144,211.343,63.347,211.873,63.347z"/>
	<path fill="#868686" d="M225.145,64.813c-0.624,0-1.139-0.148-1.544-0.444c-0.405-0.297-0.697-0.694-0.873-1.193l-0.313,1.481
		h-1.513l2.417-11.385h1.716l-0.998,4.772c0.396-0.51,0.855-0.918,1.38-1.225c0.525-0.307,1.084-0.46,1.677-0.46
		c0.437,0,0.824,0.088,1.162,0.265c0.338,0.178,0.618,0.416,0.842,0.718s0.393,0.652,0.507,1.053s0.172,0.824,0.172,1.271
		c0,0.696-0.13,1.356-0.39,1.98s-0.606,1.17-1.037,1.638c-0.432,0.468-0.926,0.84-1.481,1.114
		C226.312,64.674,225.737,64.813,225.145,64.813z M225.051,63.347c0.374,0,0.735-0.094,1.084-0.281s0.66-0.434,0.936-0.741
		c0.275-0.306,0.494-0.662,0.655-1.068c0.161-0.405,0.242-0.826,0.242-1.263c0-0.291-0.037-0.566-0.109-0.827
		c-0.073-0.26-0.183-0.488-0.328-0.686s-0.325-0.356-0.538-0.476c-0.213-0.12-0.46-0.18-0.74-0.18c-0.239,0-0.479,0.047-0.718,0.141
		s-0.468,0.221-0.687,0.382c-0.218,0.161-0.423,0.349-0.615,0.562s-0.367,0.439-0.522,0.679l-0.468,2.152
		c0.03,0.457,0.215,0.839,0.553,1.146C224.133,63.193,224.552,63.347,225.051,63.347z"/>
	<path fill="#868686" d="M233.831,64.813c-0.52,0-0.978-0.092-1.372-0.273c-0.396-0.182-0.728-0.426-0.998-0.732
		s-0.476-0.666-0.616-1.076c-0.141-0.411-0.211-0.851-0.211-1.318c0-0.655,0.13-1.286,0.391-1.895
		c0.26-0.608,0.613-1.146,1.061-1.614c0.446-0.468,0.975-0.842,1.583-1.123c0.607-0.28,1.26-0.421,1.957-0.421
		c0.52,0,0.979,0.091,1.38,0.272c0.4,0.183,0.738,0.427,1.014,0.733s0.483,0.668,0.624,1.084s0.211,0.857,0.211,1.325
		c0,0.646-0.131,1.269-0.391,1.872c-0.26,0.603-0.615,1.139-1.067,1.606c-0.453,0.468-0.983,0.845-1.591,1.131
		C235.196,64.669,234.538,64.813,233.831,64.813z M234.159,63.347c0.363,0,0.72-0.089,1.068-0.266
		c0.348-0.177,0.657-0.418,0.928-0.726c0.271-0.307,0.488-0.662,0.655-1.068c0.166-0.405,0.249-0.836,0.249-1.294
		c0-0.624-0.158-1.141-0.476-1.552s-0.741-0.616-1.271-0.616c-0.363,0-0.717,0.091-1.06,0.273c-0.344,0.182-0.653,0.426-0.929,0.732
		s-0.496,0.663-0.662,1.068c-0.167,0.405-0.25,0.837-0.25,1.295c0,0.623,0.158,1.138,0.476,1.544
		C233.205,63.144,233.629,63.347,234.159,63.347z"/>
	<path fill="#868686" d="M241.161,56.5h1.591l-0.406,1.824c0.396-0.562,0.843-1.014,1.342-1.356
		c0.499-0.344,0.992-0.515,1.481-0.515c0.104,0,0.185,0.002,0.242,0.008c0.057,0.005,0.111,0.013,0.163,0.023l-0.327,1.497
		c-0.624,0.021-1.206,0.174-1.747,0.46s-0.978,0.694-1.31,1.225l-1.061,4.99h-1.716L241.161,56.5z"/>
	<path fill="#868686" d="M246.869,56.5h1.591l-0.406,1.824c0.396-0.562,0.843-1.014,1.342-1.356
		c0.499-0.344,0.992-0.515,1.481-0.515c0.104,0,0.185,0.002,0.242,0.008c0.057,0.005,0.111,0.013,0.163,0.023l-0.327,1.497
		c-0.624,0.021-1.206,0.174-1.747,0.46s-0.978,0.694-1.31,1.225l-1.061,4.99h-1.716L246.869,56.5z"/>
	<path fill="#868686" d="M253.918,64.813c-0.52,0-0.978-0.092-1.372-0.273c-0.396-0.182-0.728-0.426-0.998-0.732
		s-0.476-0.666-0.616-1.076c-0.141-0.411-0.211-0.851-0.211-1.318c0-0.655,0.13-1.286,0.391-1.895
		c0.26-0.608,0.613-1.146,1.061-1.614c0.446-0.468,0.975-0.842,1.583-1.123c0.607-0.28,1.26-0.421,1.957-0.421
		c0.52,0,0.979,0.091,1.38,0.272c0.4,0.183,0.738,0.427,1.014,0.733s0.483,0.668,0.624,1.084s0.211,0.857,0.211,1.325
		c0,0.646-0.131,1.269-0.391,1.872c-0.26,0.603-0.615,1.139-1.067,1.606c-0.453,0.468-0.983,0.845-1.591,1.131
		C255.283,64.669,254.625,64.813,253.918,64.813z M254.246,63.347c0.363,0,0.72-0.089,1.068-0.266
		c0.348-0.177,0.657-0.418,0.928-0.726c0.271-0.307,0.488-0.662,0.655-1.068c0.166-0.405,0.249-0.836,0.249-1.294
		c0-0.624-0.158-1.141-0.476-1.552s-0.741-0.616-1.271-0.616c-0.363,0-0.717,0.091-1.06,0.273c-0.344,0.182-0.653,0.426-0.929,0.732
		s-0.496,0.663-0.662,1.068c-0.167,0.405-0.25,0.837-0.25,1.295c0,0.623,0.158,1.138,0.476,1.544
		C253.292,63.144,253.716,63.347,254.246,63.347z"/>
	<path fill="#868686" d="M259.97,56.5h1.715l1.139,6.628c0.125-0.166,0.26-0.354,0.405-0.562s0.289-0.418,0.43-0.632
		c0.14-0.213,0.275-0.423,0.405-0.632c0.13-0.207,0.247-0.395,0.351-0.562l-0.998-4.241h1.622l0.515,2.589
		c0.083-0.167,0.177-0.364,0.28-0.593c0.104-0.229,0.206-0.463,0.305-0.702s0.189-0.47,0.272-0.694
		c0.083-0.223,0.151-0.423,0.203-0.6h1.497c-0.447,1.435-1.097,2.833-1.949,4.195l0.53,2.261c0.415-0.571,0.795-1.123,1.139-1.653
		c0.343-0.53,0.652-1.055,0.928-1.575c0.275-0.52,0.522-1.045,0.74-1.575c0.219-0.53,0.416-1.081,0.593-1.652h1.591
		c-0.416,1.361-1.019,2.721-1.809,4.078c-0.791,1.356-1.736,2.716-2.839,4.078h-1.528l-0.515-2.464
		c-0.104,0.146-0.229,0.33-0.374,0.554s-0.299,0.452-0.46,0.686c-0.162,0.234-0.317,0.46-0.468,0.679
		c-0.151,0.219-0.289,0.4-0.414,0.546h-1.684L259.97,56.5z"/>
	<path fill="#868686" d="M270.918,64.656l0.421-1.996h1.436l-0.438,1.996H270.918z"/>
</g>
</svg>
